<svg width="500" height="500" viewBox="0 0 500 500" fill="none" xmlns="http://www.w3.org/2000/svg">
<rect width="500" height="500" fill="#000631"/>
<path d="M266.225 282.529H255.231L247.39 271.918C230.979 271.432 220.228 260.497 220.228 243.973C220.228 227.449 231.464 216.028 248.44 216.028C265.417 216.028 276.733 227.044 276.733 243.973C276.733 257.986 269.135 267.868 256.847 270.946L266.225 282.529ZM248.44 263.494C261.294 263.494 267.519 257.5 267.519 243.973C267.519 230.446 261.294 224.371 248.44 224.371C235.587 224.371 229.443 230.446 229.443 243.973C229.443 257.5 235.587 263.494 248.44 263.494ZM299.934 271.918C288.618 271.918 283.119 264.385 283.119 255.07V230.851H291.77V252.721C291.77 260.254 295.246 264.061 303.734 264.061C312.222 264.061 316.749 259.525 316.749 250.777V230.851H325.399V271.108H317.395V258.634H316.911C315.617 265.438 310.282 271.918 299.934 271.918ZM353.53 271.918C340.353 271.918 331.703 264.466 331.703 251.02C331.703 238.465 340.273 230.041 353.368 230.041C366.464 230.041 374.305 236.926 374.305 249.157C374.305 250.615 374.225 251.749 373.983 252.964H339.867C340.191 260.74 343.992 264.871 353.288 264.871C361.694 264.871 365.17 262.117 365.17 257.338V256.69H373.901V257.419C373.901 266.005 365.494 271.918 353.53 271.918ZM353.206 236.926C344.313 236.926 340.433 240.895 339.949 248.104H366.06V247.942C366.06 240.49 361.776 236.926 353.206 236.926ZM399.849 271.918C386.917 271.918 379.561 266.815 379.561 257.5V257.257H388.291V257.905C388.291 263.17 391.443 264.871 399.849 264.871C407.692 264.871 410.036 263.251 410.036 259.687C410.036 256.366 408.096 255.313 402.356 254.503L391.361 253.045C383.763 252.073 379.155 248.833 379.155 242.11C379.155 235.387 385.541 230.041 397.909 230.041C410.278 230.041 417.634 234.982 417.634 244.54V244.783H408.986V244.297C408.986 239.518 406.56 237.007 397.667 237.007C390.311 237.007 387.725 238.627 387.725 242.434C387.725 245.593 389.341 246.727 395.403 247.537L404.7 248.833C414.24 250.048 418.604 253.288 418.604 259.93C418.604 267.463 411.168 271.918 399.849 271.918ZM451.222 271.108H442.008C433.358 271.108 428.021 267.301 428.021 257.5V238.141H421.231V230.851H428.021V222.022H436.672V230.851H451.222V238.141H436.672V257.014C436.672 261.955 438.936 263.251 443.948 263.251H451.222V271.108Z" fill="white"/>
<path d="M70.9222 272.243C66.5569 272.243 62.7171 271.473 59.3623 269.894C56.0075 268.314 53.4207 266.087 51.521 263.171C49.6213 260.255 48.6917 256.731 48.6917 252.64V250.372H59.2006V252.64C59.2006 256.042 60.2515 258.594 62.3533 260.336C64.4551 261.996 67.3248 262.846 70.9222 262.846C74.5195 262.846 77.3084 262.117 79.0869 260.66C80.9057 259.201 81.8354 257.339 81.8354 255.071C81.8354 253.491 81.3907 252.235 80.4611 251.264C79.6123 250.291 78.3188 249.522 76.5808 248.915C74.9237 248.267 72.8622 247.659 70.4372 247.132L68.5778 246.727C64.6976 245.877 61.3428 244.783 58.5539 243.487C55.8054 242.151 53.6632 240.369 52.1677 238.222C50.7126 236.076 49.9851 233.241 49.9851 229.798C49.9851 226.356 50.7934 223.399 52.4102 220.969C54.0674 218.499 56.4117 216.595 59.3623 215.299C62.3937 213.963 65.9102 213.274 69.9521 213.274C73.9941 213.274 77.5912 213.963 80.7035 215.38C83.8966 216.717 86.3623 218.782 88.1406 221.536C89.9594 224.25 90.8891 227.652 90.8891 231.742V234.172H80.3801V231.742C80.3801 229.596 79.9355 227.854 79.0869 226.558C78.2784 225.222 77.1062 224.25 75.5299 223.642C73.9535 222.994 72.0942 222.67 69.9521 222.67C66.7185 222.67 64.3338 223.278 62.7575 224.533C61.262 225.708 60.494 227.368 60.494 229.474C60.494 230.892 60.8578 232.066 61.5449 233.038C62.3129 234.01 63.4042 234.82 64.8593 235.468C66.3144 236.117 68.1736 236.684 70.4372 237.169L72.2964 237.574C76.3384 238.425 79.8547 239.559 82.8054 240.895C85.8367 242.232 88.181 244.014 89.8382 246.241C91.4955 248.469 92.3443 251.304 92.3443 254.747C92.3443 258.189 91.4551 261.267 89.6766 263.9C87.9386 266.492 85.4731 268.557 82.2396 270.056C79.0465 271.513 75.2873 272.243 70.9222 272.243ZM100.63 287.309V230.932H110.654V235.792H112.109C113.039 234.213 114.453 232.836 116.394 231.661C118.334 230.406 121.123 229.798 124.72 229.798C127.953 229.798 130.944 230.608 133.693 232.228C136.441 233.808 138.665 236.117 140.322 239.195C141.979 242.273 142.828 245.998 142.828 250.372V251.669C142.828 256.042 141.979 259.768 140.322 262.846C138.665 265.925 136.441 268.273 133.693 269.894C130.944 271.473 127.953 272.243 124.72 272.243C122.295 272.243 120.233 271.959 118.576 271.351C116.959 270.825 115.626 270.096 114.615 269.246C113.645 268.314 112.877 267.423 112.271 266.492H110.816V287.309H100.63ZM121.648 263.333C124.841 263.333 127.428 262.32 129.489 260.336C131.591 258.27 132.642 255.313 132.642 251.426V250.615C132.642 246.727 131.591 243.771 129.489 241.786C127.388 239.721 124.76 238.708 121.648 238.708C118.536 238.708 115.909 239.721 113.807 241.786C111.705 243.771 110.654 246.727 110.654 250.615V251.426C110.654 255.313 111.705 258.27 113.807 260.336C115.909 262.32 118.536 263.333 121.648 263.333ZM152.164 271.108V230.932H162.35V271.108H152.164ZM157.257 226.234C155.438 226.234 153.862 225.627 152.569 224.452C151.316 223.278 150.709 221.698 150.709 219.754C150.709 217.81 151.316 216.231 152.569 215.056C153.862 213.882 155.438 213.274 157.257 213.274C159.076 213.274 160.693 213.882 161.946 215.056C163.199 216.231 163.805 217.81 163.805 219.754C163.805 221.698 163.199 223.278 161.946 224.452C160.693 225.627 159.157 226.234 157.257 226.234ZM173.667 271.108V230.932H183.691V236.198H185.146C185.793 234.78 187.006 233.484 188.784 232.228C190.563 230.932 193.271 230.284 196.868 230.284C199.98 230.284 202.729 231.013 205.033 232.471C207.417 233.889 209.236 235.833 210.53 238.384C211.823 240.855 212.47 243.771 212.47 247.132V271.108H202.284V247.943C202.284 244.905 201.516 242.637 200.021 241.138C198.565 239.64 196.464 238.871 193.715 238.871C190.603 238.871 188.178 239.923 186.44 242.03C184.702 244.095 183.853 246.97 183.853 250.696V271.108H173.667Z" fill="#2F81E1"/>
</svg>
