<svg width="500" height="500" viewBox="0 0 500 500" fill="none" xmlns="http://www.w3.org/2000/svg">
<rect width="500" height="500" fill="#110053"/>
<g clip-path="url(#clip0_245_721)">
<path d="M166.481 298.891L158.952 320.782H152.481L144.952 298.891H150.455L155.717 315.419L161.008 298.891H166.481ZM201.027 303.164V307.592H207.951V311.708H201.027V316.509H208.858V320.782H195.856V298.891H208.858V303.164H201.027ZM253.519 305.814C253.136 305.086 252.581 304.536 251.856 304.161C251.151 303.767 250.313 303.57 249.347 303.57C247.673 303.57 246.334 304.141 245.325 305.284C244.317 306.406 243.813 307.914 243.813 309.806C243.813 311.821 244.337 313.401 245.386 314.545C246.453 315.668 247.915 316.23 249.77 316.23C251.039 316.23 252.109 315.897 252.975 315.231C253.862 314.567 254.507 313.61 254.91 312.363H248.348V308.433H259.598V313.391C259.214 314.723 258.559 315.959 257.632 317.103C256.724 318.245 255.565 319.171 254.154 319.877C252.743 320.585 251.151 320.938 249.376 320.938C247.28 320.938 245.405 320.47 243.752 319.535C242.12 318.579 240.839 317.257 239.912 315.575C239.006 313.89 238.552 311.968 238.552 309.806C238.552 307.643 239.006 305.721 239.912 304.036C240.839 302.332 242.12 301.013 243.752 300.076C245.386 299.12 247.25 298.642 249.347 298.642C251.887 298.642 254.023 299.276 255.758 300.544C257.511 301.812 258.67 303.57 259.234 305.814H253.519ZM302.888 316.915H294.967L293.696 320.782H288.284L295.963 298.891H301.952L309.631 320.782H304.159L302.888 316.915ZM301.558 312.799L298.928 304.785L296.327 312.799H301.558ZM346.864 321C345.311 321 343.92 320.741 342.69 320.22C341.461 319.701 340.473 318.932 339.727 317.912C339.001 316.894 338.618 315.668 338.578 314.234H344.081C344.162 315.044 344.435 315.668 344.898 316.104C345.361 316.52 345.966 316.728 346.711 316.728C347.478 316.728 348.083 316.552 348.526 316.199C348.97 315.824 349.191 315.315 349.191 314.67C349.191 314.129 349.01 313.683 348.647 313.329C348.304 312.975 347.871 312.685 347.347 312.456C346.843 312.227 346.117 311.967 345.169 311.676C343.799 311.24 342.681 310.804 341.814 310.367C340.947 309.93 340.201 309.285 339.576 308.433C338.951 307.581 338.638 306.469 338.638 305.097C338.638 303.06 339.354 301.469 340.786 300.326C342.217 299.161 344.081 298.579 346.379 298.579C348.718 298.579 350.603 299.161 352.034 300.326C353.465 301.469 354.231 303.07 354.332 305.128H348.738C348.698 304.421 348.445 303.869 347.982 303.475C347.519 303.06 346.923 302.852 346.198 302.852C345.573 302.852 345.069 303.028 344.686 303.381C344.303 303.715 344.112 304.202 344.112 304.847C344.112 305.554 344.435 306.105 345.079 306.5C345.724 306.895 346.733 307.321 348.103 307.779C349.473 308.257 350.582 308.713 351.429 309.151C352.296 309.587 353.041 310.221 353.666 311.053C354.291 311.884 354.604 312.955 354.604 314.265C354.604 315.512 354.291 316.645 353.666 317.663C353.062 318.683 352.175 319.493 351.005 320.096C349.836 320.698 348.456 321 346.864 321ZM198.164 186.476C198.71 186.476 199.106 186.993 198.968 187.521L177.711 268.066C177.615 268.431 177.285 268.685 176.909 268.685C170.76 268.685 166.107 268.667 162.417 268.223C158.581 267.762 155.806 266.842 153.488 265.015L153.42 264.961C151.111 263.122 149.576 260.627 148.241 256.992C146.905 253.353 145.775 248.587 144.264 242.214L138.098 216.207C138.056 216.027 137.896 215.9 137.711 215.899C137.526 215.898 137.365 216.024 137.321 216.204L124.61 268.052C124.519 268.424 124.186 268.685 123.804 268.685C117.529 268.685 112.819 268.68 109.1 268.238C105.34 267.791 102.611 266.9 100.314 265.13C98.0174 263.36 96.4565 260.945 95.0584 257.418C93.6586 253.886 92.4282 249.256 90.7831 243.063L76.0284 187.522C75.8881 186.994 76.2856 186.476 76.8311 186.476C81.1404 186.478 84.4536 186.5 87.1462 186.744C90.0968 187.012 92.2832 187.546 94.2025 188.606C96.0713 189.638 97.7312 191.012 99.0967 192.655C100.499 194.343 101.437 196.393 102.26 199.246C103.084 202.103 103.788 205.75 104.73 210.627L111.253 244.406C111.286 244.579 111.436 244.705 111.612 244.708C111.788 244.711 111.942 244.591 111.981 244.419L122.387 199.127C123.223 195.489 123.635 193.704 124.435 192.278C125.886 189.693 128.286 187.778 131.124 186.94C132.691 186.478 134.519 186.476 138.241 186.476C141.951 186.476 143.774 186.478 145.336 186.938C148.168 187.772 150.564 189.677 152.018 192.251C152.82 193.671 153.237 195.449 154.083 199.072L164.597 244.125C164.636 244.297 164.791 244.417 164.967 244.413C165.144 244.41 165.293 244.283 165.327 244.11L172.013 209.213C172.816 205.028 173.414 201.898 174.09 199.428C174.765 196.96 175.512 195.162 176.602 193.638C178.329 191.225 180.65 189.302 183.339 188.057C185.039 187.27 186.94 186.874 189.485 186.675C191.769 186.497 194.556 186.478 198.164 186.476ZM421.793 186.476C422.338 186.476 422.735 186.993 422.596 187.521L401.339 268.066C401.243 268.431 400.913 268.685 400.537 268.685C394.388 268.685 389.736 268.667 386.045 268.223C382.209 267.762 379.434 266.842 377.115 265.015L377.049 264.961C374.74 263.122 373.205 260.627 371.87 256.992C370.534 253.353 369.404 248.587 367.893 242.214L361.727 216.207C361.685 216.027 361.524 215.9 361.34 215.899C361.154 215.898 360.994 216.024 360.949 216.204L348.239 268.052C348.147 268.424 347.815 268.685 347.433 268.685C341.158 268.685 336.447 268.68 332.729 268.238C328.968 267.791 326.239 266.9 323.943 265.13C321.646 263.36 320.085 260.945 318.688 257.418C317.287 253.886 316.057 249.256 314.411 243.063L299.657 187.522C299.517 186.994 299.915 186.476 300.459 186.476C304.769 186.478 308.082 186.5 310.775 186.744C313.726 187.012 315.912 187.546 317.831 188.606C319.7 189.638 321.36 191.012 322.726 192.655C324.128 194.343 325.066 196.393 325.889 199.246C326.713 202.103 327.417 205.75 328.359 210.627L334.881 244.406C334.914 244.579 335.065 244.705 335.241 244.708C335.416 244.711 335.57 244.591 335.609 244.419L346.016 199.127C346.851 195.489 347.264 193.704 348.064 192.278C349.516 189.693 351.915 187.778 354.753 186.94C356.319 186.478 358.147 186.476 361.87 186.476C365.579 186.476 367.402 186.478 368.964 186.938C371.796 187.772 374.193 189.677 375.646 192.251C376.449 193.671 376.866 195.449 377.711 199.072L388.225 244.125C388.265 244.297 388.419 244.417 388.597 244.413C388.773 244.41 388.921 244.283 388.955 244.11L395.642 209.213C396.444 205.028 397.043 201.898 397.719 199.428C398.393 196.96 399.14 195.162 400.231 193.638C401.957 191.225 404.278 189.302 406.967 188.057C408.667 187.27 410.569 186.874 413.113 186.675C415.397 186.497 418.185 186.478 421.793 186.476Z" fill="white"/>
<path d="M251.902 179C224.95 179.474 200.859 200.475 200.859 227.564C200.859 255.269 223.782 276.156 249.624 276.156C278.87 276.156 299.294 251.261 297.675 227.501C296.063 203.866 276.707 185.298 256.672 186.421C236.556 187.548 227.373 206.185 231.475 220.926C233.11 226.799 236.389 230.979 239.881 233.322C243.311 235.622 247.19 236.274 249.796 234.524C250.257 234.214 250.344 233.574 249.985 233.152C244.981 227.3 244.626 220.955 246.944 216.096C249.279 211.207 254.353 207.744 260.407 207.744C272.598 207.744 279.194 218.158 278.849 227.236C278.677 231.736 276.392 237.967 271.757 243.071C267.146 248.147 260.23 252.084 250.781 252.084C241.382 252.084 234.171 247.566 229.162 241.205C224.14 234.825 221.364 226.62 220.896 219.401C219.975 205.169 229.477 184.447 252.027 180.972C252.544 180.893 252.928 180.436 252.894 179.916C252.86 179.396 252.425 178.991 251.902 179Z" fill="#007EFF"/>
</g>
<defs>
<clipPath id="clip0_245_721">
<rect width="347" height="142" fill="white" transform="translate(76 179)"/>
</clipPath>
</defs>
</svg>
