<svg xmlns="http://www.w3.org/2000/svg" fill="white" viewBox="0 0 249.99 116.13">
  <path d="M18.75 64.57c-5.59-2.92-9.97-7-13.14-12.25C2.44 47.08.85 41.13.85 34.47s1.59-12.61 4.76-17.85 7.55-9.33 13.14-12.25C24.34 1.46 30.62 0 37.59 0 44 0 49.71 1.13 54.73 3.39s9.17 5.53 12.43 9.8L53.13 25.72C49.05 20.57 44.24 18 38.72 18c-4.65 0-8.38 1.49-11.21 4.47s-4.24 6.99-4.24 12.01 1.41 9.03 4.24 12.01 6.56 4.47 11.21 4.47c5.53 0 10.33-2.57 14.41-7.72l14.03 12.53c-3.27 4.27-7.41 7.54-12.43 9.8s-10.74 3.39-17.14 3.39q-10.455 0-18.84-4.38ZM143.51 1.51h22.23v65.94h-22.23zM237.7 1.51v65.94h-18.27L194.37 37.5v29.95H172.7V1.51h18.27l25.06 29.95V1.51h21.66ZM71.65 73.19h12.61v37.39H71.65zM199.4 73.19h18.43c4.17 0 7.84.76 11.03 2.27s5.66 3.68 7.42 6.49q2.64 4.215 2.64 9.93c0 5.715-.88 7.12-2.64 9.94-1.76 2.81-4.24 4.98-7.42 6.49-3.19 1.51-6.86 2.27-11.03 2.27H199.4zm17.89 27.56c2.71 0 4.87-.77 6.49-2.32q2.43-2.325 2.43-6.54c0-4.215-.81-4.99-2.43-6.54s-3.78-2.32-6.49-2.32H212v17.73h5.29ZM161.74 109.52v1.05h12.61v-7.18s-.1.03-.14.04c-3.06 1.61-8.36 4.35-12.46 6.09Z" class="st0"/>
  <path d="M201.2 113.5c-1.64-.89-3.16-2.5-4.29-3.92l-7.17-10.54c2.28-1.18 4.02-2.76 5.23-4.75s1.82-4.33 1.82-7c0-2.85-.69-5.34-2.08-7.48s-3.36-3.77-5.93-4.91q-3.84-1.71-9.03-1.71h-18v21.02c7.53.23 15.07 1.81 19.34 3.59.75.31 1.22 1.05 1.19 1.86s-.56 1.51-1.33 1.76c-.08.03-1.11.36-2.48.78l5.12 7.57.71 1.16s2.66 3.47 9.99 4.8c5.94 1.08 11.63-.38 11.63-.38s-1.63-.17-4.72-1.86Zm-18.41-22.98c-.85.77-2.14 1.15-3.85 1.15h-4.59v-8.76h4.59c1.71 0 2.99.38 3.85 1.15.85.77 1.28 1.84 1.28 3.23s-.43 2.47-1.28 3.23M118.09 105.52c.09-.07.19-.14.29-.19l1.87-1.05v-3.48H102.3l17.09-19.87v-7.74h-2.03c-.15.52-.31 1.04-.48 1.49-.27.72-.47 3.75-.39 6.09.03.92-.49 1.69-1.38 1.9s-1.82-.23-2.2-1.07c-.21-.45-2.24-3.84-2.37-7.48-.01-.32-.04-.62-.06-.92H87.4v9.77h15.59l-16.13 19.87v7.74h18.23c2.29-.75 5.11-1.62 5.9-1.78 2.39-.49 6.07-2.42 7.09-3.27ZM115.05 63.64c.49-.54 1.22-1.57 1.92-2.57.9-1.27 1.68-2.37 2.31-2.99.84-.82 2.16-1.2 3.64-1.07 1.86.17 3.58 1.15 4.61 2.6.07.1.17.21.28.34 2.5-2.22 4.63-4.78 6.38-7.72q4.68-7.86 4.68-17.76c0-9.9-1.56-12.51-4.68-17.76-3.12-5.24-7.44-9.34-12.95-12.29C115.74 1.48 109.53 0 102.61 0S89.48 1.48 83.97 4.43s-9.83 7.05-12.95 12.29q-4.68 7.86-4.68 17.76c0 9.9 1.56 12.51 4.68 17.76 3.12 5.24 7.44 9.34 12.95 12.29s11.72 4.43 18.64 4.43c2.85 0 5.58-.27 8.19-.77.08-.14.17-.27.28-.39.03-.03 2.82-2.89 3.97-4.16M89.89 52.16l3.66-14.56-11.52-9.63 14.98-1.02 5.6-13.93 5.6 13.93 14.98 1.02-11.52 9.63 3.66 14.56-12.72-7.98z" class="st0"/>
  <path d="M154.51 96.51c-4.52-9.32-10.49-16.63-12.27-19.04-1.81-2.46-5.45-7.92-6.27-8.35s-2.85-1.26-2.85-1.26-6.15-4.04-7.54-6.03-4.33-2.22-5.31-1.26-2.97 4.17-4.16 5.48c-1.19 1.3-4.01 4.21-4.01 4.21s.14 1.76.33 4.53 2.19 6.05 2.19 6.05-.52-4.18.08-5.74 1.18-4.29 1.18-4.29c2.13-.5 5.94-2.89 5.94-2.89s.36.73.89 2.53c.52 1.8 2.66 4.59 2.66 4.59l1.51 4.48s-.44 3.28-.61 4.67.5 3.74.5 3.74-.87 1.63-1.47 3.84.31 4.61-.31 6.3c-.44 1.19-.1 4.68.13 6.63-.08.02-.12.04-.12.04l-6.05 3.38s-6.33 3.06-9.72 3.76c-3.4.7-5.37 1.85-4.66 2.78s3.57 1.38 6.77 1.03c2.2-.25 7.54-1.41 12.41-3.85 5.32-1.2 18.27-4.13 21.33-5.02 3.88-1.12 10.92-4.29 10.92-4.29s3.47-.41 7.63-.55c-5.5 3.72-14.08 8.2-21.75 10.13-7.82 1.97-17.68 1.29-17.68 1.29l-1.4.48s2.42 1.43 10.8 1.14c8.37-.29 17.54-2.49 22.28-4.59 3.61-1.61 13.08-6.64 17.38-8.94 2.92-.76 5.19-2.11 5.19-2.11-5.14-2.13-15.18-3.81-23.92-2.86ZM58.07 73.19l-6.89 21.52-6.52-21.52H33.07l-6.89 21.26-2.64-8.63h.02l-2.67-8.95s-.1-.32-.35-.84l-.03-.1-.04-.05c-.82-1.65-2.98-4.99-7.78-6.76C7.03 67.03.01 66.22.01 66.22s1.41.74 3.94 3.19c1.4 1.35 2.57 3.74 3.33 5.59l11.38 35.57h13.51l6.36-19.98 6.04 19.98h13.51l11.96-37.39H58.08ZM243.1 105.17v.89h-1.72v4.49h-1.07v-4.49h-1.72v-.89zm5.82 5.39-.2-3.17c-.02-.42-.02-.93-.04-1.5h-.06c-.14.48-.3 1.11-.46 1.6l-.97 2.99h-1.11l-.97-3.07c-.1-.42-.26-1.05-.38-1.52h-.06c0 .49-.02 1.01-.04 1.5l-.2 3.17h-1.03l.4-5.38h1.6l.93 2.63c.12.42.22.81.36 1.37h.02c.14-.49.26-.95.38-1.35l.93-2.65h1.54l.42 5.38h-1.07Z" class="st0"/>
</svg>
