<svg xmlns="http://www.w3.org/2000/svg" width="235" height="34" viewBox="0 0 235 34" fill="none">
  <path d="M38.9678 12.427C37.9412 11.3741 36.7033 10.549 35.3396 10.0125C32.3002 8.89884 28.974 8.89884 25.9346 10.0125C24.5759 10.5338 23.3431 11.3437 22.3266 12.3865C21.3101 13.4495 20.5251 14.715 20.0269 16.1019C19.4834 17.6357 19.2067 19.2504 19.2218 20.8804C19.2016 22.49 19.4683 24.0947 20.0118 25.6082C20.505 27.0002 21.295 28.2657 22.3165 29.3236C23.338 30.3815 24.5759 31.2066 25.9447 31.7432C27.4392 32.3354 29.0394 32.6189 30.6447 32.5835C32.2499 32.6037 33.8451 32.3253 35.3497 31.7533C36.7084 31.2218 37.9362 30.4068 38.9577 29.359C39.9793 28.2859 40.7643 27.0154 41.2624 25.6183C41.8109 24.1048 42.0927 22.5052 42.0827 20.8905C42.0978 19.2808 41.8311 17.6762 41.2926 16.1576C40.7894 14.7605 39.9944 13.49 38.9678 12.427ZM34.7609 26.3472C34.2779 26.9799 33.6539 27.4912 32.9393 27.8354C32.2248 28.1796 31.4397 28.3466 30.6447 28.3264C29.5728 28.3466 28.5161 28.0328 27.6254 27.4304C26.7397 26.7775 26.0604 25.8815 25.678 24.8438C25.1999 23.5834 24.9735 22.242 25.0087 20.8955C24.9785 19.5339 25.205 18.1824 25.678 16.9068C26.0554 15.864 26.7347 14.9579 27.6254 14.2999C28.501 13.7076 29.5326 13.4039 30.5843 13.4242C31.3794 13.3938 32.1744 13.5608 32.894 13.9C33.6136 14.2391 34.2426 14.7555 34.7257 15.3933C35.7321 16.6942 36.2706 18.5316 36.2706 20.8702C36.2706 23.2088 35.7674 25.0362 34.7358 26.3472H34.7609Z" fill="white"/>
  <path d="M58.826 10.0883C57.7491 9.491 56.5364 9.18222 55.3035 9.18222C54.2669 9.1316 53.2454 9.4505 52.4201 10.0883C51.5647 10.8577 50.8501 11.7739 50.3117 12.7964C50.3419 11.8498 50.1104 10.9083 49.6374 10.0883C49.4008 9.78459 49.0889 9.54668 48.7366 9.38976C48.3844 9.2379 48.0019 9.1721 47.6195 9.20753C45.7526 9.20753 44.8266 10.5034 44.8266 13.09V29.1008C44.7512 30.0372 45.0279 30.9737 45.6066 31.7127C45.8582 32.0012 46.1652 32.229 46.5174 32.3809C46.8647 32.5327 47.2421 32.6087 47.6195 32.6036C48.0069 32.6137 48.3944 32.5429 48.7517 32.391C49.109 32.2392 49.431 32.0164 49.6977 31.733C50.2966 30.9939 50.5884 30.0524 50.5129 29.1008V24.2869C50.5129 22.5608 50.5683 21.0979 50.679 19.8881C50.7645 18.8403 50.9709 17.8026 51.2929 16.8004C51.5143 16.0411 51.9471 15.3577 52.5359 14.8262C53.1145 14.3605 53.8442 14.1176 54.589 14.153C55.3136 14.1732 56.0332 14.3049 56.7226 14.5377C57.2107 14.725 57.7139 14.8566 58.2322 14.9275C58.821 14.9173 59.3846 14.6744 59.8022 14.2542C60.0438 14.0315 60.235 13.7632 60.3658 13.4646C60.4967 13.1659 60.5621 12.8369 60.557 12.5079C60.552 11.5006 59.9733 10.6907 58.826 10.0883Z" fill="white"/>
  <path d="M76.7708 27.815C76.3179 27.8302 75.87 27.896 75.4272 28.0023C74.9894 28.1036 74.5415 28.1643 74.0886 28.1846C73.8471 28.2099 73.6005 28.1846 73.3691 28.1036C73.1376 28.0226 72.9262 27.896 72.7501 27.7239C72.4683 27.3949 72.2922 26.9849 72.2469 26.5496C72.1764 25.8611 72.1463 25.1677 72.1563 24.4742V13.8442H73.2282C74.1239 13.8898 75.0146 13.7328 75.8398 13.3836C76.1367 13.2317 76.3833 12.9938 76.5443 12.7002C76.7054 12.4066 76.7758 12.0725 76.7506 11.7385C76.7607 11.46 76.7054 11.1816 76.5946 10.9235C76.4839 10.6653 76.3179 10.4375 76.1065 10.2553C75.5782 9.8453 74.9189 9.65295 74.2547 9.71369H72.1513V5.77554C72.1714 5.01119 72.1161 4.24684 71.9852 3.49262C71.8896 2.97631 71.6279 2.50049 71.2405 2.14616C70.8027 1.72602 70.2391 1.45268 69.6352 1.37675C69.0314 1.30082 68.4225 1.42231 67.8891 1.72602C67.4915 1.95887 67.1544 2.28789 66.9229 2.68778C66.6914 3.10285 66.5505 3.56349 66.5103 4.03931C66.465 4.5455 66.4398 5.29466 66.4398 6.21592V9.68332H65.8058C65.0862 9.62764 64.3716 9.83518 63.7929 10.2654C63.5766 10.4426 63.4004 10.6704 63.2847 10.9235C63.169 11.1766 63.1086 11.46 63.1136 11.7385C63.1086 12.027 63.1639 12.3104 63.2797 12.5737C63.3954 12.8369 63.5665 13.0697 63.7829 13.257C64.3163 13.6822 64.9906 13.8948 65.6749 13.8493H66.4298V24.8994C66.3945 26.342 66.5405 27.7796 66.8625 29.1868C67.1242 30.2346 67.7733 31.1407 68.6791 31.7178C69.9221 32.4011 71.3361 32.7149 72.7501 32.6238C74.2245 32.6947 75.6989 32.4467 77.0727 31.8899C77.5105 31.7329 77.8879 31.4394 78.1596 31.0597C78.4314 30.6801 78.5773 30.2245 78.5823 29.7588C78.5823 29.5006 78.5421 29.2476 78.4414 29.0096C78.3458 28.7717 78.2049 28.5541 78.0238 28.3718C77.8627 28.1997 77.6665 28.0631 77.4551 27.9669C77.2388 27.8707 77.0073 27.8201 76.7708 27.815Z" fill="white"/>
  <path d="M100.385 9.20769C99.9975 9.19251 99.6101 9.26337 99.2528 9.41523C98.8955 9.56709 98.5734 9.78981 98.3118 10.0783C97.723 10.7971 97.4362 11.7184 97.5117 12.6447V19.6301C97.5117 22.3939 97.3456 24.1858 97.0085 24.9907C96.626 25.912 95.9769 26.6965 95.1466 27.2432C94.3465 27.8051 93.3954 28.1088 92.4192 28.1139C91.5637 28.1594 90.7233 27.8861 90.0591 27.3445C89.4653 26.7674 89.0527 26.0284 88.8816 25.2134C88.635 24.1049 88.5193 22.971 88.5394 21.8321V12.6194C88.6149 11.6931 88.328 10.7769 87.7494 10.053C87.4776 9.7645 87.1505 9.54178 86.7832 9.39498C86.4158 9.24819 86.0284 9.18238 85.6359 9.20769C85.2534 9.19757 84.871 9.26844 84.5187 9.41523C84.1615 9.56203 83.8444 9.77969 83.5777 10.0581C83.0091 10.7921 82.7273 11.7133 82.7977 12.6447V24.0391C82.7977 26.327 83.155 28.0886 83.8646 29.3135C84.4734 30.336 85.3541 31.1662 86.4158 31.6977C87.5682 32.2798 88.8464 32.5734 90.1346 32.5481C91.1762 32.5633 92.2078 32.4165 93.2042 32.1128C94.0999 31.8141 94.9352 31.3535 95.6749 30.7612C96.4801 30.1336 97.2097 29.4148 97.8438 28.6099V29.349C97.7884 30.2146 98.0602 31.07 98.6036 31.7433C98.8502 32.0065 99.1471 32.2191 99.4792 32.3608C99.8113 32.5076 100.164 32.5785 100.526 32.5785C100.888 32.5785 101.24 32.5025 101.573 32.3608C101.905 32.2191 102.202 32.0065 102.448 31.7433C103.007 31.0447 103.284 30.1589 103.218 29.268V12.6194C103.299 11.6931 103.032 10.7718 102.473 10.0328C102.207 9.74932 101.88 9.53165 101.522 9.38992C101.165 9.24819 100.778 9.18745 100.39 9.20769H100.385Z" fill="white"/>
  <path d="M126.04 12.9787C125.461 11.7841 124.52 10.8021 123.353 10.1694C122.115 9.50119 120.731 9.16204 119.327 9.18229C117.898 9.15698 116.484 9.48094 115.206 10.1187C113.897 10.8375 112.775 11.8448 111.91 13.0648V12.3865C111.925 11.7841 111.799 11.1817 111.542 10.6351C111.326 10.1896 110.994 9.82008 110.576 9.56193C110.169 9.32402 109.706 9.20253 109.238 9.20253C108.87 9.18229 108.508 9.24809 108.171 9.38476C107.834 9.5265 107.532 9.73909 107.285 10.0124C106.762 10.7211 106.505 11.5917 106.571 12.4725V29.1008C106.505 30.0373 106.787 30.9636 107.366 31.6976C107.612 31.9861 107.924 32.219 108.271 32.3759C108.619 32.5328 108.996 32.6087 109.378 32.6037C109.766 32.6189 110.153 32.548 110.516 32.3961C110.873 32.2443 111.2 32.0216 111.462 31.733C112.056 30.9889 112.347 30.0525 112.282 29.1008V21.8623C112.207 20.2476 112.342 18.6278 112.695 17.0485C113.042 16.0361 113.686 15.1553 114.541 14.5175C115.347 13.9152 116.323 13.5912 117.329 13.5912C118.894 13.5912 119.941 14.0974 120.469 15.1098C121.058 16.4815 121.32 17.9748 121.234 19.4681V29.0857C121.169 30.0221 121.456 30.9484 122.034 31.6824C122.296 31.9659 122.613 32.1937 122.965 32.3455C123.317 32.5024 123.7 32.5784 124.082 32.5784C124.465 32.5784 124.847 32.4974 125.199 32.3455C125.552 32.1886 125.869 31.9659 126.13 31.6824C126.704 30.9383 126.986 30.0069 126.92 29.0705V18.3544C126.92 17.3117 126.87 16.2689 126.754 15.2363C126.639 14.4517 126.397 13.6874 126.045 12.9787H126.04Z" fill="white"/>
  <path d="M150.747 25.1728C150.35 24.8336 149.841 24.6514 149.323 24.6666C148.87 24.6413 148.417 24.7779 148.055 25.0513C147.34 25.7245 146.772 26.2611 146.314 26.6508C145.851 27.0659 145.363 27.4506 144.844 27.7948C144.336 28.1289 143.783 28.3871 143.199 28.5541C142.585 28.7211 141.951 28.8021 141.317 28.792C140.306 28.8072 139.309 28.5288 138.454 27.9922C137.593 27.4557 136.909 26.6761 136.476 25.7549C135.953 24.6919 135.681 23.5226 135.681 22.3381H146.893C148.09 22.3887 149.283 22.1609 150.375 21.6649C151.2 21.2397 151.613 20.2981 151.613 18.8555C151.603 17.2509 151.2 15.6766 150.435 14.2694C149.6 12.7306 148.357 11.455 146.842 10.5844C145.086 9.5973 143.098 9.10629 141.085 9.16197C139.48 9.14173 137.885 9.43026 136.385 10.0022C135.032 10.5186 133.814 11.3335 132.823 12.3965C131.831 13.4747 131.082 14.7452 130.619 16.1373C130.105 17.6558 129.844 19.2453 129.854 20.8499C129.854 24.454 130.875 27.3241 132.923 29.4551C134.971 31.5862 137.82 32.6391 141.478 32.6137C142.932 32.6391 144.382 32.4315 145.77 31.9861C146.877 31.6267 147.924 31.0901 148.855 30.3865C149.585 29.8297 150.209 29.1463 150.692 28.3617C151.044 27.8049 151.245 27.1621 151.281 26.504C151.296 26.256 151.25 26.008 151.16 25.7802C151.069 25.5524 150.928 25.3449 150.747 25.1728ZM137.377 14.6339C137.82 14.1429 138.368 13.7582 138.977 13.5C139.586 13.2419 140.24 13.1204 140.899 13.1457C141.574 13.1153 142.243 13.2317 142.867 13.4848C143.491 13.7379 144.054 14.1226 144.517 14.6136C145.433 15.5855 145.957 17.0636 146.108 19.0428H135.711C135.767 17.4281 136.355 15.8791 137.377 14.6339Z" fill="white"/>
  <path d="M11.5031 18.8808L7.12515 15.3831C7.07986 15.3476 7.03458 15.3223 6.97922 15.3071V29.7082C6.90877 30.6497 7.1956 31.5811 7.78436 32.3151C8.03597 32.6036 8.34293 32.8314 8.69014 32.9883C9.03736 33.1453 9.41477 33.2212 9.79721 33.2111C10.1897 33.2262 10.5822 33.1503 10.9445 32.9985C11.3068 32.8415 11.6289 32.6087 11.8906 32.3151C12.4743 31.5811 12.7611 30.6497 12.6957 29.7082V18.5316L11.9359 18.9213C11.8654 18.9568 11.7899 18.9669 11.7144 18.9618C11.639 18.9568 11.5635 18.9264 11.5031 18.8808Z" fill="white"/>
  <path d="M7.92464 8.02814L11.5427 11.3538C11.6031 11.4095 11.6786 11.4449 11.7642 11.455C11.8447 11.4652 11.9302 11.455 12.0007 11.4196L12.6699 11.0602V7.68899C12.6297 6.79304 12.7806 5.89708 13.1128 5.06187C13.4046 4.44432 14.0689 4.14061 15.1256 4.14061C15.5886 4.14567 16.0566 4.19122 16.5145 4.26209C16.8919 4.33296 17.2743 4.37345 17.6618 4.38864C17.8983 4.38864 18.1298 4.33802 18.3411 4.24184C18.5525 4.14567 18.7437 4.00393 18.8997 3.82677C19.2369 3.45725 19.413 2.97637 19.4029 2.47524C19.4029 0.825063 17.7322 0.0100981 14.3708 0.0100981C12.8511 -0.0506446 11.3415 0.192326 9.91736 0.728887C8.87068 1.17433 8.03535 2.00955 7.58246 3.05736C7.07925 4.42913 6.84777 5.89202 6.91319 7.35491V8.32679L7.35601 8.00283C7.39627 7.9674 7.44156 7.93703 7.49188 7.91678C7.5422 7.89653 7.59252 7.89147 7.64788 7.89147C7.70323 7.89147 7.75355 7.90666 7.79884 7.93197C7.84916 7.95728 7.88942 7.98765 7.92464 8.02814Z" fill="white"/>
  <path d="M18.4334 9.31398L12.6867 12.2802L12.0124 12.6396C11.937 12.6801 11.8564 12.6953 11.7709 12.6801C11.6904 12.67 11.6099 12.6295 11.5545 12.5738L7.91126 9.23805C7.84081 9.18237 7.75526 9.14693 7.66469 9.14187C7.57411 9.13681 7.48353 9.15706 7.40805 9.20262L6.97025 9.52658L0.161796 14.4569C0.0762499 14.5227 0.0208966 14.6239 0.00580019 14.7302C-0.00929617 14.8416 0.0208966 14.9479 0.081282 15.039C0.126571 15.0997 0.181924 15.1453 0.252374 15.1757C0.322824 15.206 0.398306 15.2111 0.468755 15.1959L6.79413 14.0975C6.85452 14.0873 6.90987 14.0873 6.97025 14.0975C7.02561 14.1127 7.0709 14.138 7.11619 14.1734L11.4992 17.6813C11.5595 17.7319 11.635 17.7623 11.7105 17.7724C11.786 17.7825 11.8665 17.7724 11.937 17.7268L12.7018 17.3421L18.8259 14.1886C18.8913 14.1582 18.9517 14.1076 18.987 14.0418C19.0272 13.976 19.0473 13.9051 19.0473 13.8292V9.67337C19.0473 9.56707 19.0021 9.46077 18.9266 9.38484C18.8511 9.30892 18.7454 9.26842 18.6397 9.26842C18.5693 9.26336 18.4938 9.27854 18.4334 9.31398Z" fill="url(#paint0_linear_31387_3343)"/>
  <path fill-rule="evenodd" clip-rule="evenodd" d="M190.541 9.38965C191.18 9.38965 191.738 9.59212 192.191 10.0021L192.282 10.0882C192.75 10.5539 192.971 11.1512 192.971 11.8396V30.5534C192.941 31.1659 192.715 31.7025 192.282 32.1378C191.819 32.6035 191.225 32.8313 190.541 32.8313C189.922 32.8313 189.378 32.6288 188.93 32.2188L188.845 32.1328C188.382 31.6671 188.15 31.09 188.15 30.4269V11.8345C188.15 11.1512 188.377 10.5539 188.845 10.0831C189.308 9.6225 189.881 9.38965 190.541 9.38965ZM190.44 32.3757H190.641H190.435H190.44ZM191.965 31.8139C191.935 31.8442 191.899 31.8746 191.864 31.905C191.874 31.8948 191.884 31.8898 191.889 31.8847L191.96 31.8189H191.965V31.8139ZM188.981 31.6063C188.981 31.6063 189.011 31.6468 189.026 31.6671C189.006 31.6417 188.986 31.6164 188.971 31.5962L188.981 31.6114V31.6063Z" fill="url(#paint1_linear_31387_3343)"/>
  <path fill-rule="evenodd" clip-rule="evenodd" d="M208.103 9.1723C209.814 9.1723 211.298 9.58231 212.531 10.4175C213.749 11.2173 214.68 12.3056 215.314 13.6723C215.948 15.0087 216.26 16.4918 216.26 18.1167V30.5487C216.225 31.1662 215.978 31.6977 215.525 32.128C215.062 32.5937 214.489 32.8215 213.829 32.8265C213.21 32.8265 212.667 32.6241 212.219 32.2141L212.128 32.128C211.671 31.6623 211.439 31.0852 211.439 30.4221V18.5469C211.439 17.0638 211.122 15.9401 210.538 15.1301L210.418 14.9732L210.408 14.9631C209.809 14.1633 208.762 13.7128 207.147 13.7128C205.682 13.7128 204.424 14.1076 203.363 14.8821C202.291 15.6667 201.345 16.5627 200.534 17.5801V30.5487C200.504 31.1662 200.253 31.6977 199.8 32.128C199.337 32.5937 198.763 32.8265 198.104 32.8265C197.485 32.8265 196.942 32.6241 196.494 32.2141L196.408 32.128C195.945 31.6623 195.719 31.0852 195.719 30.4221V11.8349C195.719 11.1515 195.945 10.5542 196.408 10.0834C196.871 9.61774 197.445 9.3849 198.104 9.3849C198.763 9.3849 199.337 9.61774 199.795 10.0784C200.288 10.5441 200.534 11.1363 200.534 11.8298V12.503C201.294 11.7792 202.14 11.1059 203.071 10.4985C204.424 9.60256 206.11 9.16724 208.098 9.16724H208.103V9.1723ZM196.257 11.2072C196.202 11.3995 196.172 11.6121 196.172 11.8399V30.5335C196.197 31.0397 196.383 31.4649 196.73 31.8192C197.082 32.1736 197.505 32.3608 198.008 32.3811H198.109C197.566 32.3811 197.103 32.1938 196.73 31.8192C196.358 31.4446 196.172 30.984 196.172 30.4323V11.8349C196.172 11.6071 196.202 11.3995 196.257 11.2021V11.2072ZM207.157 13.2674C206.971 13.2674 206.789 13.2724 206.613 13.2876C206.789 13.2775 206.971 13.2724 207.157 13.2724C208.853 13.2724 210.055 13.7483 210.775 14.705C211.52 15.6313 211.897 16.917 211.897 18.5621V30.5386C211.922 31.0448 212.108 31.47 212.456 31.8243C212.808 32.1786 213.231 32.3659 213.734 32.3862H213.834C214.222 32.3862 214.564 32.295 214.861 32.1077C214.559 32.295 214.222 32.3912 213.834 32.3912C213.291 32.3912 212.828 32.2039 212.456 31.8293C212.083 31.4548 211.897 30.9891 211.897 30.4424V18.5672C211.897 16.9221 211.525 15.6363 210.775 14.71C210.055 13.7584 208.853 13.2775 207.157 13.2775V13.2674ZM199.231 32.0318C199.231 32.0318 199.256 32.0116 199.271 32.0065C199.271 32.0065 199.246 32.0268 199.231 32.0318ZM215.143 31.88C215.097 31.9255 215.047 31.961 214.997 32.0015C215.047 31.966 215.097 31.9255 215.143 31.88ZM203.322 10.8832L203.091 11.0351C203.091 11.0351 203.081 11.0401 203.076 11.0452C203.156 10.9895 203.237 10.9338 203.317 10.8832H203.322ZM196.403 10.8427C196.403 10.8427 196.398 10.8579 196.393 10.863C196.408 10.8377 196.423 10.8124 196.433 10.787L196.398 10.8427H196.403ZM197.128 10.0936C196.987 10.1746 196.856 10.2809 196.73 10.4023L196.665 10.4732C196.665 10.4732 196.71 10.4276 196.73 10.4023C196.851 10.2809 196.987 10.1746 197.128 10.0936Z" fill="url(#paint2_linear_31387_3343)"/>
  <path fill-rule="evenodd" clip-rule="evenodd" d="M183.205 9.38965C183.864 9.38965 184.438 9.6225 184.901 10.0882C185.364 10.5539 185.59 11.1309 185.59 11.794C185.59 12.0826 185.535 12.3762 185.439 12.6748L179.32 30.7053C179.119 31.2925 178.747 31.7885 178.233 32.2087H178.228V32.2188C177.685 32.6238 177.076 32.8313 176.402 32.8313C175.727 32.8313 175.118 32.6238 174.58 32.2188H174.575V32.2087C174.087 31.8139 173.725 31.338 173.488 30.7913L173.443 30.68L173.433 30.6547L169.291 17.6507L165.15 30.6547V30.6699L165.14 30.685C164.908 31.2824 164.531 31.7936 164.013 32.2137H164.008V32.2239C163.464 32.6288 162.855 32.8364 162.181 32.8364C161.552 32.8364 160.973 32.6541 160.46 32.2998L160.359 32.2239H160.354V32.2137C159.866 31.8189 159.514 31.3583 159.302 30.8217L159.262 30.7154L153.143 12.6799C153.043 12.3762 152.992 12.0826 152.992 11.7991C152.992 11.136 153.224 10.5589 153.682 10.0933C154.145 9.62756 154.718 9.39471 155.377 9.39471C155.85 9.39471 156.293 9.5162 156.681 9.75917C157.093 10.0021 157.385 10.3514 157.546 10.7918L157.576 10.8829L162.191 26.1597L166.755 11.2727C166.926 10.7209 167.238 10.2704 167.686 9.92115L167.701 9.91102C168.179 9.56682 168.713 9.39471 169.296 9.39471C169.845 9.39471 170.348 9.54657 170.801 9.85028L170.891 9.91102C171.369 10.2552 171.692 10.7108 171.837 11.2727L176.402 26.1597L181.016 10.888C181.167 10.402 181.469 10.0224 181.907 9.76423C182.314 9.52632 182.752 9.39977 183.21 9.39977V9.38965H183.205ZM162.669 32.3302C162.513 32.3605 162.347 32.3757 162.181 32.3757H162.045H162.176C162.402 32.3757 162.614 32.3504 162.82 32.2998L162.664 32.3352H162.669V32.3302ZM176.291 32.3757H176.397H176.261H176.291ZM163.731 31.8543C163.731 31.8543 163.696 31.8797 163.675 31.8948C163.696 31.8797 163.711 31.8695 163.731 31.8543C163.736 31.8543 163.741 31.8442 163.746 31.8392C163.741 31.8392 163.736 31.8493 163.731 31.8543ZM153.561 12.528C153.541 12.4622 153.521 12.4015 153.505 12.3407L153.561 12.528ZM169.286 16.1726L173.855 30.518L169.291 16.1726H169.286ZM178.847 30.6749C178.847 30.6749 178.857 30.6547 178.862 30.6446L178.887 30.5686C178.877 30.6041 178.862 30.6395 178.847 30.6749ZM167.429 10.8525C167.324 11.0196 167.238 11.2018 167.178 11.4043C167.238 11.2069 167.324 11.0196 167.429 10.8525ZM153.45 11.4903V11.5359C153.455 11.4853 153.46 11.4397 153.47 11.3942L153.455 11.4903H153.45ZM154.361 10.1084C154.23 10.1894 154.104 10.2856 153.994 10.402C153.913 10.483 153.848 10.564 153.782 10.6501C153.843 10.564 153.913 10.478 153.994 10.402C154.109 10.2856 154.23 10.1894 154.361 10.1084ZM170.71 10.3413C170.71 10.3413 170.7 10.3312 170.695 10.3312L170.63 10.2805C170.63 10.2805 170.685 10.321 170.71 10.3413ZM182.002 10.2249C182.002 10.2249 181.992 10.235 181.987 10.24C182.017 10.2198 182.053 10.1945 182.083 10.1742L182.002 10.2249Z" fill="url(#paint3_linear_31387_3343)"/>
  <path fill-rule="evenodd" clip-rule="evenodd" d="M190.712 1.51855C191.391 1.51855 191.985 1.7514 192.483 2.20697L192.579 2.30315C193.092 2.81946 193.359 3.45726 193.359 4.18111V4.48989C193.324 5.16312 193.062 5.7503 192.579 6.23624C192.066 6.75256 191.437 7.01577 190.712 7.01577H190.455C189.776 7.01577 189.182 6.78293 188.684 6.32736L188.589 6.23118C188.075 5.71487 187.809 5.07707 187.809 4.35322V4.18111C187.809 3.4522 188.07 2.81946 188.589 2.30315C189.102 1.78684 189.731 1.51855 190.455 1.51855H190.712ZM190.345 6.5602H190.455H190.299H190.345ZM190.712 6.56527H190.823C190.823 6.56527 190.848 6.56527 190.863 6.5602C190.813 6.5602 190.762 6.56527 190.707 6.56527H190.712ZM192.574 5.53264C192.488 5.66425 192.383 5.79586 192.267 5.91228C192.217 5.9629 192.161 6.01352 192.106 6.05908C192.131 6.03883 192.161 6.01352 192.187 5.98821C192.212 5.9629 192.242 5.93759 192.267 5.91228C192.388 5.7908 192.488 5.66425 192.574 5.53264ZM188.267 3.96851V4.01407V3.95333V3.96851Z" fill="url(#paint4_linear_31387_3343)"/>
  <path d="M233.793 22.6943C233.176 21.8417 232.362 21.1673 231.383 20.6856C230.437 20.2232 229.42 19.8619 228.371 19.6066C227.345 19.3609 226.375 19.1249 225.457 18.8937C224.591 18.6769 223.885 18.3879 223.358 18.0363C222.915 17.7424 222.708 17.3475 222.708 16.7983C222.708 16.1432 223.033 15.6037 223.701 15.1461C224.422 14.6548 225.476 14.4091 226.841 14.4091C227.688 14.4091 228.488 14.4765 229.218 14.6066C229.952 14.7415 230.639 14.9149 231.251 15.122C231.355 15.1557 231.458 15.1846 231.557 15.1991C231.661 15.2184 231.779 15.228 231.92 15.228C232.503 15.228 232.998 15.016 233.398 14.5922C233.788 14.1731 233.986 13.6769 233.986 13.1182C233.986 12.7232 233.859 12.3282 233.609 11.938C233.351 11.5286 232.969 11.2492 232.518 11.1143C231.675 10.806 230.743 10.5555 229.75 10.358C228.752 10.1605 227.679 10.0642 226.563 10.0642C223.866 10.0642 221.8 10.7241 220.411 12.0295C219.013 13.3446 218.303 15.0209 218.303 17.0055C218.303 18.3349 218.623 19.4428 219.258 20.3003C219.875 21.1336 220.684 21.8031 221.668 22.2848C222.614 22.7473 223.617 23.1182 224.657 23.3831C225.669 23.6432 226.639 23.8889 227.556 24.1201C228.432 24.3417 229.147 24.6066 229.679 24.9149C230.103 25.1558 230.301 25.4689 230.301 25.8927C230.301 26.6635 230.018 27.2367 229.439 27.6509C228.818 28.0989 227.768 28.3205 226.328 28.3205C225.203 28.3205 224.214 28.2001 223.391 27.9689C222.548 27.728 221.772 27.4486 221.075 27.1307C220.774 26.9958 220.468 26.9284 220.167 26.9284C219.573 26.9284 219.084 27.1548 218.698 27.6028C218.331 28.0315 218.143 28.518 218.143 29.043C218.143 29.7656 218.444 30.3677 219.018 30.782L219.037 30.7964L219.06 30.8109C220.101 31.3985 221.244 31.8658 222.464 32.203C223.683 32.5402 225.066 32.7087 226.563 32.7087C229.227 32.7087 231.275 32.0681 232.654 30.806C234.043 29.5296 234.749 27.9737 234.749 26.1769C234.749 24.7415 234.429 23.5758 233.798 22.6991H233.793V22.6943Z" fill="url(#paint5_linear_31387_3343)"/>
  <defs>
    <linearGradient id="paint0_linear_31387_3343" x1="9.52657" y1="18.1318" x2="9.52657" y2="9.14187" gradientUnits="userSpaceOnUse">
      <stop stop-color="#CFA54A"/>
      <stop offset="1" stop-color="#F9EDA8"/>
    </linearGradient>
    <linearGradient id="paint1_linear_31387_3343" x1="190.561" y1="34.1373" x2="190.561" y2="1.5184" gradientUnits="userSpaceOnUse">
      <stop stop-color="#CFA54A"/>
      <stop offset="1" stop-color="#F9EDA8"/>
    </linearGradient>
    <linearGradient id="paint2_linear_31387_3343" x1="205.989" y1="34.1376" x2="205.989" y2="1.32636" gradientUnits="userSpaceOnUse">
      <stop stop-color="#CFA54A"/>
      <stop offset="1" stop-color="#F9EDA8"/>
    </linearGradient>
    <linearGradient id="paint3_linear_31387_3343" x1="169.291" y1="34.1373" x2="169.291" y2="1.5184" gradientUnits="userSpaceOnUse">
      <stop stop-color="#CFA54A"/>
      <stop offset="1" stop-color="#F9EDA8"/>
    </linearGradient>
    <linearGradient id="paint4_linear_31387_3343" x1="190.581" y1="34.1374" x2="190.581" y2="1.51855" gradientUnits="userSpaceOnUse">
      <stop stop-color="#CFA54A"/>
      <stop offset="1" stop-color="#F9EDA8"/>
    </linearGradient>
    <linearGradient id="paint5_linear_31387_3343" x1="226.446" y1="32.7087" x2="226.446" y2="2.64609" gradientUnits="userSpaceOnUse">
      <stop stop-color="#CFA54A"/>
      <stop offset="1" stop-color="#F9EDA8"/>
    </linearGradient>
  </defs>
</svg>