<?xml version="1.0" encoding="UTF-8"?> <svg xmlns="http://www.w3.org/2000/svg" width="631" height="186" viewBox="0 0 631 186" fill="none"><g clip-path="url(#clip0_1296_1017)"><path d="M356.971 32.333L353.674 53.508H356.971V32.333Z" fill="#8A38D2"></path><path d="M359.901 53.5082V13.7959L356.971 32.3332V53.5082H359.901Z" fill="#8938D2"></path><path d="M362.833 53.5082V0.753906H361.954L359.902 13.7959V53.5082H362.833Z" fill="#8839D3"></path><path d="M365.763 53.5082V44.7158H364.664L365.763 38.1948V0.753906H362.832V53.5082H365.763Z" fill="#8739D3"></path><path d="M368.694 44.7158H365.764V53.5082H368.694V44.7158Z" fill="#8639D3"></path><path d="M367.009 30.0619H368.694V22.0022H368.328L368.694 19.7308V0.753906H365.764V38.1948L367.009 30.0619Z" fill="#8639D3"></path><path d="M372.357 44.7158H368.693V53.5082H372.357V44.7158Z" fill="#8539D3"></path><path d="M372.357 22.002H368.693V30.0616H372.357V22.002Z" fill="#8539D3"></path><path d="M370.379 8.81359H372.357V0.753906H368.693V19.7308L370.379 8.81359Z" fill="#8539D3"></path><path d="M375.288 0.753906H372.357V8.81359H375.288V0.753906Z" fill="#8439D4"></path><path d="M375.288 44.7158H372.357V53.5082H375.288V44.7158Z" fill="#8439D4"></path><path d="M375.288 22.002H372.357V30.0616H375.288V22.002Z" fill="#8439D4"></path><path d="M378.218 44.7158H375.287V53.5082H378.218V44.7158Z" fill="#833AD4"></path><path d="M378.218 22.002H375.287V30.0616H378.218V22.002Z" fill="#833AD4"></path><path d="M378.218 0.753906H375.287V8.81359H378.218V0.753906Z" fill="#833AD4"></path><path d="M381.15 0.753906H378.219V8.81359H381.15V0.753906Z" fill="#823AD4"></path><path d="M381.15 22.002H378.219V30.0616H381.15V22.002Z" fill="#823AD4"></path><path d="M381.15 44.7158H378.219V53.5082H381.15V44.7158Z" fill="#823AD4"></path><path d="M384.081 0.753906H381.15V8.81359H384.081V0.753906Z" fill="#813AD4"></path><path d="M384.081 44.7158H381.15V53.5082H384.081V44.7158Z" fill="#813AD4"></path><path d="M384.081 22.002H381.15V30.0616H384.081V22.002Z" fill="#813AD4"></path><path d="M387.744 0.753906H384.08V8.81359H387.744V0.753906Z" fill="#803AD5"></path><path d="M387.011 30.0616L387.744 25.5922V22.002H384.08V30.0616H387.011Z" fill="#803AD5"></path><path d="M385.179 53.5082L386.498 44.7158H384.08V53.5082H385.179Z" fill="#803AD5"></path><path d="M390.675 0.753906H387.744V8.81359H390.675V0.753906Z" fill="#7F3AD5"></path><path d="M388.33 22.002H387.744V25.5922L388.33 22.002Z" fill="#7F3AD5"></path><path d="M391.553 8.81359L392.872 0.753906H390.674V8.81359H391.553Z" fill="#7E3AD5"></path><path d="M301.285 53.508H304.216V32.4795L301.285 51.0901V53.508Z" fill="#9B35CE"></path><path d="M307.148 53.5081V13.9424L304.217 32.4797V53.5081H307.148Z" fill="#9A35CE"></path><path d="M310.077 53.5082V0.753906H309.198L307.146 13.9425V53.5082H310.077Z" fill="#9935CE"></path><path d="M310.664 53.5082L313.742 33.7254V0.753906H310.078V53.5082H310.664Z" fill="#9836CF"></path><path d="M314.328 30.0619H316.673V22.0022H315.647L316.673 15.4079V0.753906H313.742V33.7254L314.328 30.0619Z" fill="#9736CF"></path><path d="M318.943 0.753906H316.672V15.4079L318.943 0.753906Z" fill="#9636CF"></path><path d="M319.603 22.002H316.672V30.0616H319.603V22.002Z" fill="#9636CF"></path><path d="M322.534 22.002H319.604V30.0616H322.534V22.002Z" fill="#9536CF"></path><path d="M325.464 22.002H322.533V30.0616H325.464V22.002Z" fill="#9436D0"></path><path d="M329.128 22.002H325.465V30.0616H329.128V22.002Z" fill="#9337D0"></path><path d="M332.06 22.002H329.129V30.0616H332.06V22.002Z" fill="#9237D0"></path><path d="M333.451 53.5087H334.99V43.5439L333.451 53.5087Z" fill="#9137D0"></path><path d="M334.989 22.002H332.059V30.0616H334.989V22.002Z" fill="#9137D0"></path><path d="M337.115 30.0616L334.99 43.5433V53.508H337.921V22.002H334.99V30.0616H337.115Z" fill="#9037D1"></path><path d="M341.583 53.5078V1.85254L338.506 22.0018H337.92V53.5078H341.583Z" fill="#8F37D1"></path><path d="M343.049 53.5082L344.515 43.8366V0.753906H341.731L341.584 1.85295V53.5082H343.049Z" fill="#8E37D1"></path><path d="M347.446 25.2993V0.753906H344.516V43.8366L347.446 25.2993Z" fill="#8D38D1"></path><path d="M350.376 6.76205V0.753906H347.445V25.2993L350.376 6.76205Z" fill="#8C38D2"></path><path d="M351.11 2.14603V0.753906H350.377V6.76205L351.11 2.14603Z" fill="#8B38D2"></path><path d="M267.582 0.753906H266.776L265.457 8.81359H267.582V0.753906Z" fill="#A733CB"></path><path d="M270.513 0.753906H267.582V8.81359H270.513V0.753906Z" fill="#A633CB"></path><path d="M272.051 53.5082H273.443V44.6426L272.051 53.5082Z" fill="#A533CB"></path><path d="M273.443 0.753906H270.512V8.81359H273.443V0.753906Z" fill="#A533CB"></path><path d="M273.443 44.6427V53.5084H276.374V26.1787L273.443 44.6427Z" fill="#A433CC"></path><path d="M276.374 0.753906H273.443V8.81359H276.374V0.753906Z" fill="#A433CC"></path><path d="M279.157 8.81359L276.373 26.1786V53.5082H279.304V0.753906H276.373V8.81359H279.157Z" fill="#A334CC"></path><path d="M281.649 53.5082L282.968 44.9356V0.753906H279.305V53.5082H281.649Z" fill="#A234CC"></path><path d="M285.9 26.4716V0.753906H282.969V44.9356L285.9 26.4716Z" fill="#A134CC"></path><path d="M288.683 8.81359H288.829V0.753906H285.898V26.4716L288.683 8.81359Z" fill="#A034CD"></path><path d="M291.761 0.753906H288.83V8.81359H291.761V0.753906Z" fill="#9F34CD"></path><path d="M294.691 0.753906H291.76V8.81359H294.691V0.753906Z" fill="#9E34CD"></path><path d="M298.355 0.753906H294.691V8.81359H298.355V0.753906Z" fill="#9D35CD"></path><path d="M301.286 0.753906H298.355V8.81359H301.286V0.753906Z" fill="#9C35CE"></path><path d="M300.92 53.5077H301.286V51.0898L300.92 53.5077Z" fill="#9C35CE"></path><path d="M302.311 8.81359L303.63 0.753906H301.285V8.81359H302.311Z" fill="#9B35CE"></path><path d="M205.302 83.4028V58.9307C199.44 63.9863 196.216 72.1925 200.832 79.0066C202.005 80.8384 203.543 82.3038 205.302 83.4028Z" fill="#BB2FC6"></path><path d="M208.966 85.1613V56.3662C207.647 57.0989 206.402 57.9781 205.303 58.9307V83.4028C206.475 84.1355 207.721 84.7217 208.966 85.1613Z" fill="#BA2FC6"></path><path d="M211.896 85.8193V55.0459C210.87 55.4122 209.917 55.8519 208.965 56.3647V85.1598C209.917 85.4529 210.87 85.6727 211.896 85.8193Z" fill="#B92FC6"></path><path d="M214.827 86.0393V54.3135C213.875 54.46 212.849 54.6798 211.896 55.0462V85.8195C212.849 86.0393 213.875 86.1126 214.827 86.0393Z" fill="#B830C7"></path><path d="M217.757 85.8206V54.168C217.098 54.168 216.365 54.168 215.632 54.2412C215.339 54.2412 215.119 54.3145 214.826 54.3145V86.0404C215.779 86.0404 216.804 85.9671 217.757 85.8206Z" fill="#B730C7"></path><path d="M220.689 85.0879V54.5343C219.736 54.3145 218.784 54.168 217.758 54.168V85.8206C218.784 85.674 219.736 85.381 220.689 85.0879Z" fill="#B630C7"></path><path d="M224.353 83.256V56.0728C223.254 55.4134 222.008 54.9005 220.689 54.6074V85.161C222.008 84.6481 223.254 83.9887 224.353 83.256Z" fill="#B530C7"></path><path d="M227.282 80.6177V58.3437C226.403 57.3912 225.451 56.6585 224.352 55.999V83.1822C225.451 82.5227 226.403 81.6435 227.282 80.6177Z" fill="#B430C8"></path><path d="M227.723 80.1049C228.822 78.7128 229.628 77.1741 230.214 75.6355V63.033C229.555 61.2745 228.529 59.7359 227.283 58.3438V80.6178C227.43 80.4713 227.576 80.3247 227.723 80.1049Z" fill="#B331C8"></path><path d="M230.213 63.0332V75.6356C231.825 71.4592 231.752 66.9165 230.213 63.0332Z" fill="#B231C8"></path><path d="M201.053 155.499C199.587 151.689 202.665 142.164 203.837 138.061C204.277 136.522 204.789 134.984 205.302 133.518V96.7369L192.773 95.3447C187.425 109.925 182.222 125.092 174.822 138.867C169.327 149.125 162.293 160.115 149.691 161.581C149.104 161.654 148.152 161.434 147.786 161.727L139.066 184.221C143.829 184.294 148.811 183.708 153.354 182.17C162 179.239 168.961 169.933 174.309 162.753C174.749 167.442 175.628 175.062 178.779 178.653C183.908 184.587 193.946 185.393 201.053 183.049C202.518 182.536 203.91 181.876 205.302 181.144V159.749C203.544 159.163 201.932 157.771 201.053 155.499Z" fill="#BB2FC6"></path><path d="M208.966 123.627V97.1769L205.303 96.8105V133.519C206.475 130.075 207.647 126.778 208.966 123.627Z" fill="#BA2FC6"></path><path d="M205.303 159.749V181.144C206.622 180.411 207.794 179.532 208.966 178.579V160.189C207.721 160.335 206.475 160.189 205.303 159.749Z" fill="#BA2FC6"></path><path d="M208.965 160.189V178.58C209.991 177.774 210.943 176.894 211.896 175.942V159.31C211.016 159.822 209.991 160.116 208.965 160.189Z" fill="#B92FC6"></path><path d="M211.896 116.593V97.4698L208.965 97.1768V123.627C209.917 121.283 210.87 118.938 211.896 116.593Z" fill="#B92FC6"></path><path d="M214.827 109.852V97.7628L211.896 97.4697V116.593C212.849 114.395 213.875 112.124 214.827 109.852Z" fill="#B830C7"></path><path d="M213.289 182.463H214.828V177.847L213.289 182.463Z" fill="#B830C7"></path><path d="M212.996 158.723C212.629 158.943 212.336 159.163 211.896 159.309V175.942C212.922 174.916 213.875 173.89 214.827 172.791V157.258C214.241 157.844 213.582 158.284 212.996 158.723Z" fill="#B830C7"></path><path d="M214.826 157.331V172.864C215.852 171.692 216.804 170.52 217.757 169.347L214.826 177.773V182.389H217.757V154.693C216.804 155.646 215.852 156.525 214.826 157.331Z" fill="#B730C7"></path><path d="M217.757 103.038V98.129L214.826 97.8359V109.925C215.779 107.654 216.804 105.383 217.757 103.038Z" fill="#B730C7"></path><path d="M219.663 98.3497L217.758 98.1299V103.039C218.417 101.5 219.003 99.9616 219.663 98.3497Z" fill="#B630C7"></path><path d="M217.758 154.767V182.463H220.689V151.616C219.736 152.715 218.784 153.741 217.758 154.767Z" fill="#B630C7"></path><path d="M220.689 151.616V182.463H224.353V147.146C223.181 148.685 221.935 150.151 220.689 151.616Z" fill="#B530C7"></path><path d="M226.769 143.923C225.963 144.949 225.231 146.048 224.352 147.074V182.463H227.282V142.458L226.769 143.923Z" fill="#B430C8"></path><path d="M227.283 142.457V182.463H230.214V134.178L227.283 142.457Z" fill="#B331C8"></path><path d="M230.213 134.179V182.464H233.144V125.973L230.213 134.179Z" fill="#B231C8"></path><path d="M233.145 125.972V182.463H236.075V117.766L233.145 125.972Z" fill="#B131C8"></path><path d="M236.076 117.766V182.463H238.934C239.227 181.73 239.52 180.631 239.74 179.752V107.435L236.076 117.766Z" fill="#B031C9"></path><path d="M239.738 107.435V179.752C240.691 176.821 241.643 173.817 242.669 170.886V99.2285L239.738 107.435Z" fill="#AF31C9"></path><path d="M242.963 98.2021L242.67 99.2279V170.886C243.622 168.102 244.575 165.391 245.601 162.68V98.2021H242.963Z" fill="#AE31C9"></path><path d="M245.6 98.2021V162.68C246.552 160.188 247.505 157.697 248.53 155.206V98.2021H245.6Z" fill="#AD32C9"></path><path d="M248.531 98.2021V155.206C249.704 152.349 250.949 149.564 252.195 146.78V98.2021H248.531Z" fill="#AC32CA"></path><path d="M252.195 98.2021V146.78C252.562 145.974 252.928 145.168 253.294 144.362C253.807 143.336 254.393 142.091 255.126 140.699V98.2021H252.195Z" fill="#AB32CA"></path><path d="M255.125 98.2021V140.699C256.004 139.013 256.957 137.182 258.056 135.277V98.2021H255.125Z" fill="#AA32CA"></path><path d="M258.057 98.2021V135.277C258.936 133.665 259.962 132.053 260.987 130.514V98.2021H258.057Z" fill="#A932CA"></path><path d="M261.792 115.275L263.917 109.12V98.1299H260.986V130.442C261.939 129.05 262.891 127.658 263.917 126.339V112.051C263.184 113.223 262.525 114.323 261.792 115.275Z" fill="#A833CB"></path><path d="M262.453 182.463H263.919V178.434L262.453 182.463Z" fill="#A833CB"></path><path d="M263.918 178.433V182.462H267.581V168.395L263.918 178.433Z" fill="#A733CB"></path><path d="M265.017 110.658C264.651 111.171 264.284 111.684 263.918 112.197V126.485C265.09 125.019 266.336 123.627 267.581 122.455V107.654C266.702 108.607 265.823 109.633 265.017 110.658Z" fill="#A733CB"></path><path d="M267.581 98.6418V98.3487V98.2021H263.918V109.193L267.581 98.6418Z" fill="#A733CB"></path><path d="M267.582 107.581V122.382C268.535 121.502 269.487 120.696 270.513 120.11V104.724C269.487 105.676 268.535 106.629 267.582 107.581Z" fill="#A633CB"></path><path d="M267.582 168.395V182.462H270.513V160.335L267.582 168.395Z" fill="#A633CB"></path><path d="M267.655 98.3496H267.582V98.6427L267.655 98.3496Z" fill="#A633CB"></path><path d="M270.512 160.335V182.463H273.443V152.275L270.512 160.335Z" fill="#A533CB"></path><path d="M270.512 104.724V120.11C271.464 119.524 272.49 119.011 273.443 118.791V102.379C272.417 103.112 271.464 103.918 270.512 104.724Z" fill="#A533CB"></path><path d="M273.443 152.276V182.464H276.374V144.29L273.443 152.276Z" fill="#A433CC"></path><path d="M273.443 102.379V118.791C273.517 118.791 273.663 118.718 273.736 118.718C274.689 118.498 275.568 118.425 276.374 118.425V100.4C275.348 100.987 274.396 101.646 273.443 102.379Z" fill="#A433CC"></path><path d="M276.373 144.289V182.463H279.304V136.229L276.373 144.289Z" fill="#A334CC"></path><path d="M276.373 100.401V118.425C277.545 118.499 278.498 118.865 279.304 119.451V98.8623C278.278 99.3019 277.326 99.8148 276.373 100.401Z" fill="#A334CC"></path><path d="M279.305 98.8619V119.451C282.382 121.649 282.675 126.998 281.21 131.027L279.305 136.23V182.463H282.968V97.3965C281.723 97.8361 280.477 98.2757 279.305 98.8619Z" fill="#A234CC"></path><path d="M282.969 97.3968V182.463H285.9V96.6641C284.947 96.8839 283.921 97.1037 282.969 97.3968Z" fill="#A134CC"></path><path d="M287.364 96.4444C286.851 96.5177 286.338 96.5909 285.898 96.6642V182.463H288.829V96.2979C288.39 96.3711 287.877 96.3711 287.364 96.4444Z" fill="#A034CD"></path><path d="M288.83 96.2981V182.464H288.977L291.761 174.111V96.2981C290.808 96.2248 289.856 96.2248 288.83 96.2981Z" fill="#9F34CD"></path><path d="M291.76 96.2979V174.11L294.691 165.318V96.6642C293.738 96.4444 292.786 96.2979 291.76 96.2979Z" fill="#9E34CD"></path><path d="M294.691 96.5908V165.245L298.355 154.254V97.7631C297.256 97.2503 296.01 96.8839 294.691 96.5908Z" fill="#9D35CD"></path><path d="M298.355 97.7637V154.255L301.286 145.462V99.4489C300.407 98.7895 299.381 98.2766 298.355 97.7637Z" fill="#9C35CE"></path><path d="M186.984 50.2837V49.1113H185.885L156.431 57.0977C150.862 79.2253 143.462 98.422 133.644 119.011C128.369 130.148 117.378 151.176 106.094 156.598C101.478 158.796 95.6901 158.87 94.4446 152.935C92.8326 145.095 98.1081 128.389 100.526 120.403C106.461 101.133 114.154 85.3799 121.554 66.6228L89.0226 75.4885C81.3292 93.5129 74.5884 109.119 70.2655 128.316C69.7526 130.661 69.313 134.764 68.507 136.815C67.1149 140.332 61.2533 147.952 58.5423 150.737C51.4351 158.21 38.3931 163.632 39.2723 147.586C39.5654 142.091 41.3239 135.497 42.716 130.075C47.1855 113.149 53.6332 96.5902 59.8612 80.251L0.878906 96.2971V109.266L22.347 109.412C19.4895 117.472 16.8517 125.678 15.02 134.031C11.5763 149.198 7.10685 181.363 28.4284 184.88C45.5003 187.738 58.176 172.132 67.0416 159.309C67.6278 163.559 68.8001 170.593 71.1447 174.256C80.1569 188.617 99.5734 186.785 113.128 180.704C137.527 169.787 155.185 138.867 165.809 115.347C175.628 93.7327 182.149 73.5102 186.984 50.2837Z" fill="#BB2FC6"></path><path d="M304.216 102.306C303.337 101.28 302.384 100.327 301.285 99.5215V145.535L304.216 136.743V102.306Z" fill="#9B35CE"></path><path d="M301.432 166.857L303.923 182.463H304.216V182.317V163.633L301.432 166.857Z" fill="#9B35CE"></path><path d="M307.148 127.877V107.361C306.415 105.456 305.462 103.771 304.217 102.232V136.669L307.148 127.877Z" fill="#9A35CE"></path><path d="M304.217 163.633V182.317H307.148V160.409L304.217 163.633Z" fill="#9A35CE"></path><path d="M307.806 125.899C309.418 119.451 309.271 112.783 307.146 107.435V127.95L307.806 125.899Z" fill="#9935CE"></path><path d="M307.146 160.409V182.317H310.077V157.112L307.146 160.409Z" fill="#9935CE"></path><path d="M310.078 157.112V182.317H313.742V153.082L310.078 157.112Z" fill="#9836CF"></path><path d="M313.742 153.082V182.317H316.673V149.785L313.742 153.082Z" fill="#9736CF"></path><path d="M315.5 119.451H316.672V115.934L315.5 119.451Z" fill="#9736CF"></path><path d="M316.672 115.934V119.451H319.603V106.922L316.672 115.934Z" fill="#9636CF"></path><path d="M316.672 149.784V182.316H319.603V146.561L316.672 149.784Z" fill="#9636CF"></path><path d="M319.604 146.561V182.317H322.534V143.264L319.604 146.561Z" fill="#9536CF"></path><path d="M322.461 98.2021L319.604 106.921V119.45H322.534V98.2021H322.461Z" fill="#9536CF"></path><path d="M325.464 98.2021H322.533V119.45H325.464V98.2021Z" fill="#9436D0"></path><path d="M322.533 143.263V182.316H325.464V140.039L322.533 143.263Z" fill="#9436D0"></path><path d="M325.465 140.04V182.316H329.128V135.937L325.465 140.04Z" fill="#9337D0"></path><path d="M329.128 98.2021H325.465V119.45H329.128V98.2021Z" fill="#9337D0"></path><path d="M329.129 135.937V182.317H332.06V132.713L329.129 135.937Z" fill="#9237D0"></path><path d="M332.06 98.2021H329.129V119.45H332.06V98.2021Z" fill="#9237D0"></path><path d="M333.817 161.214C333.524 161.214 333.304 161.361 333.377 160.921L334.989 159.163V129.415L332.059 132.639V182.316H334.989V161.287C334.623 161.287 334.183 161.214 333.817 161.214Z" fill="#9137D0"></path><path d="M334.989 98.2021H332.059V119.45H334.989V98.2021Z" fill="#9137D0"></path><path d="M334.99 161.288V182.317H337.921V161.361C336.895 161.361 335.943 161.361 334.99 161.288Z" fill="#9037D1"></path><path d="M337.921 98.2021H334.99V119.45H337.921V98.2021Z" fill="#9037D1"></path><path d="M337.921 155.939V126.191L334.99 129.415V159.163L337.921 155.939Z" fill="#9037D1"></path><path d="M341.583 151.835V122.088L337.92 126.191V155.939L341.583 151.835Z" fill="#8F37D1"></path><path d="M337.92 161.361V182.316H341.583V161.361C340.338 161.361 339.092 161.435 337.92 161.361Z" fill="#8F37D1"></path><path d="M341.583 98.2021H337.92V119.45H341.583V98.2021Z" fill="#8F37D1"></path><path d="M344.515 148.612V98.2021H341.584V119.45H343.929L341.584 122.088V151.836L344.515 148.612Z" fill="#8E37D1"></path><path d="M341.584 161.361V182.317H344.515V161.288C343.562 161.361 342.536 161.361 341.584 161.361Z" fill="#8E37D1"></path><path d="M347.446 145.315V98.2021H344.516V148.612L347.446 145.315Z" fill="#8D38D1"></path><path d="M344.516 161.288V182.317H345.615C346.201 182.317 346.86 182.243 347.446 182.17V161.215C346.494 161.215 345.541 161.288 344.516 161.288Z" fill="#8D38D1"></path><path d="M350.376 142.091V98.2021H347.445V145.315L350.376 142.091Z" fill="#8C38D2"></path><path d="M347.445 161.215V182.243C348.398 182.17 349.424 182.024 350.376 181.877V161.068C349.424 161.142 348.471 161.142 347.445 161.215Z" fill="#8C38D2"></path><path d="M350.963 161.067C350.743 161.067 350.523 161.067 350.377 161.067V181.876C351.329 181.73 352.355 181.51 353.308 181.29V160.921C352.575 160.994 351.769 160.994 350.963 161.067Z" fill="#8B38D2"></path><path d="M353.308 138.794V98.2021H350.377V142.091L353.308 138.794Z" fill="#8B38D2"></path><path d="M353.307 160.921V181.29C354.552 180.997 355.798 180.631 356.97 180.191V160.555C355.798 160.701 354.625 160.848 353.307 160.921Z" fill="#8A38D2"></path><path d="M356.97 134.764V98.2021H353.307V138.794L356.97 134.764Z" fill="#8A38D2"></path><path d="M356.971 160.555V180.191C357.337 180.045 357.703 179.898 358.143 179.752C358.729 179.532 359.315 179.239 359.901 178.946V159.969C358.949 160.262 357.996 160.408 356.971 160.555Z" fill="#8938D2"></path><path d="M359.901 131.467V98.2021H356.971V134.764L359.901 131.467Z" fill="#8938D2"></path><path d="M359.902 160.042V179.019C360.928 178.506 361.881 177.92 362.833 177.334V159.163C361.881 159.456 360.928 159.749 359.902 160.042Z" fill="#8839D3"></path><path d="M362.833 128.243V98.2021H359.902V131.467L362.833 128.243Z" fill="#8839D3"></path><path d="M362.832 159.089V177.26C363.858 176.601 364.81 175.868 365.763 175.062V157.551C364.81 158.21 363.858 158.723 362.832 159.089Z" fill="#8739D3"></path><path d="M365.763 125.019V98.2021H362.832V128.243L365.763 125.019Z" fill="#8739D3"></path><path d="M365.764 157.625V175.136C366.789 174.257 367.742 173.378 368.694 172.425V155.354C367.742 156.233 366.789 156.965 365.764 157.625Z" fill="#8639D3"></path><path d="M368.694 121.722V98.2021H365.764V125.019L368.694 121.722Z" fill="#8639D3"></path><path d="M368.693 155.353V172.352C370.012 170.96 371.258 169.494 372.357 167.956V151.25C371.111 152.862 369.939 154.254 368.693 155.353Z" fill="#8539D3"></path><path d="M372.357 117.692V98.2021H368.693V121.722L372.357 117.692Z" fill="#8539D3"></path><path d="M375.288 114.395V98.2021H372.357V117.692L375.288 114.395Z" fill="#8439D4"></path><path d="M375.287 147.001C375.141 147.514 373.456 149.859 373.016 150.445C372.796 150.738 372.576 150.958 372.43 151.251V167.956C373.455 166.491 374.481 164.952 375.36 163.413V146.854C375.287 146.928 375.287 147.001 375.287 147.001Z" fill="#8439D4"></path><path d="M375.947 142.457C375.653 143.776 375.653 145.681 375.287 146.854V163.413C375.434 163.119 375.58 162.826 375.8 162.533C376.386 165.024 377.192 167.296 378.218 169.421V133.885C377.265 136.742 376.459 139.6 375.947 142.457Z" fill="#833AD4"></path><path d="M378.218 111.171V98.2021H375.287V114.395L378.218 111.171Z" fill="#833AD4"></path><path d="M378.219 133.885V169.42C379.025 171.106 380.05 172.644 381.15 174.11V126.631C380.05 129.049 379.025 131.467 378.219 133.885Z" fill="#823AD4"></path><path d="M381.15 107.874V98.2021H378.219V111.171L381.15 107.874Z" fill="#823AD4"></path><path d="M384.081 104.65V98.2021H381.15V107.874L384.081 104.65Z" fill="#813AD4"></path><path d="M381.15 126.631V174.11C382.03 175.282 382.982 176.308 384.081 177.261V121.062C382.982 122.968 382.03 124.799 381.15 126.631Z" fill="#813AD4"></path><path d="M387.744 100.693V98.2021H384.08V104.65L387.744 100.693Z" fill="#803AD5"></path><path d="M384.08 121.137V177.335C385.179 178.361 386.425 179.313 387.744 180.119V115.715C386.425 117.473 385.179 119.305 384.08 121.137Z" fill="#803AD5"></path><path d="M387.744 115.714V180.118C388.697 180.705 389.649 181.218 390.675 181.657V112.124C389.649 113.296 388.697 114.469 387.744 115.714Z" fill="#7F3AD5"></path><path d="M390.674 112.124V181.657C391.626 182.097 392.579 182.463 393.605 182.756V109.047C392.579 110.073 391.626 111.098 390.674 112.124Z" fill="#7E3AD5"></path><path d="M393.605 109.047V182.756C394.558 183.05 395.51 183.343 396.536 183.489V106.409C395.51 107.288 394.558 108.168 393.605 109.047Z" fill="#7D3BD5"></path><path d="M399.468 115.787V104.137C398.442 104.869 397.49 105.602 396.537 106.408V183.561C396.757 183.635 396.977 183.635 397.123 183.708C397.929 183.854 398.662 184.001 399.468 184.074V163.412V115.787Z" fill="#7C3BD6"></path><path d="M403.13 161.288C398.221 157.258 400.053 145.315 401.372 140.406C401.811 138.868 402.398 137.036 403.13 135.057V115.788V101.793C401.885 102.526 400.639 103.332 399.467 104.138V115.788V163.413V184.075C400.712 184.222 401.885 184.295 403.13 184.368V163.413V161.288Z" fill="#7B3BD6"></path><path d="M406.062 162.534C404.889 162.314 403.937 161.874 403.131 161.288V163.413V184.368C404.083 184.368 405.109 184.368 406.062 184.368V163.413V162.534Z" fill="#7A3BD6"></path><path d="M403.131 134.984C403.937 133.006 404.889 130.881 406.062 128.829V115.787V100.254C405.182 100.694 404.303 101.133 403.497 101.573C403.351 101.646 403.277 101.719 403.131 101.793V115.787V134.984Z" fill="#7A3BD6"></path><path d="M406.061 128.83C406.94 127.218 407.892 125.679 408.991 124.287V115.788V98.9355C407.966 99.3019 407.013 99.7415 406.061 100.254V115.788V128.83Z" fill="#793BD6"></path><path d="M408.991 162.533C408.185 162.68 407.306 162.753 406.427 162.606C406.28 162.606 406.134 162.533 406.061 162.533V163.412V184.294C407.013 184.221 408.039 184.148 408.991 184.075V163.412V162.533Z" fill="#793BD6"></path><path d="M408.992 124.286C409.945 123.041 410.897 121.868 411.923 120.916V115.787V97.9092C410.897 98.2023 409.945 98.5686 408.992 98.935V115.787V124.286Z" fill="#783CD7"></path><path d="M411.923 161.508C410.97 161.947 410.018 162.314 408.992 162.46V163.34V184.002C409.945 183.855 410.97 183.782 411.923 183.562V163.413V161.508Z" fill="#783CD7"></path><path d="M411.924 120.843C412.876 119.964 413.829 119.158 414.855 118.498V115.787V97.1035C413.902 97.3233 412.876 97.6164 411.924 97.9095V115.787V120.843Z" fill="#773CD7"></path><path d="M414.855 159.603C413.902 160.335 412.95 160.995 411.924 161.508V163.413V183.635C412.876 183.415 413.902 183.195 414.855 182.976V163.413V159.603Z" fill="#773CD7"></path><path d="M418.517 155.939C417.418 157.332 416.172 158.577 414.854 159.676V163.486V183.049C416.099 182.756 417.345 182.317 418.517 181.95V163.413V155.939Z" fill="#753CD7"></path><path d="M414.854 118.499C416.026 117.766 417.271 117.18 418.517 116.887V115.788V96.3711C417.271 96.5909 416.099 96.8107 414.854 97.1038V115.788V118.499Z" fill="#753CD7"></path><path d="M421.448 151.763C420.569 153.228 419.543 154.62 418.518 155.939V163.413V181.877C419.47 181.51 420.496 181.144 421.448 180.704V163.413V151.763Z" fill="#743CD7"></path><path d="M418.518 116.814C419.03 116.667 419.543 116.594 420.056 116.52C420.569 116.447 421.009 116.447 421.448 116.52V115.788V96.0049C420.496 96.0782 419.47 96.2247 418.518 96.3712V115.788V116.814Z" fill="#743CD7"></path><path d="M421.447 116.52C422.62 116.593 423.572 116.886 424.378 117.326V115.787V95.8574C423.426 95.8574 422.4 95.8574 421.447 96.004V115.787V116.52Z" fill="#733CD7"></path><path d="M424.378 146.194C423.572 147.953 422.62 149.858 421.447 151.763V163.413V180.704C422.473 180.265 423.426 179.825 424.378 179.312V163.413V146.194Z" fill="#733CD7"></path><path d="M427.31 137.255C426.87 139.16 426.43 140.918 425.991 142.164C425.551 143.41 425.038 144.802 424.379 146.267V163.412V179.312C425.405 178.799 426.357 178.213 427.31 177.627V163.412V137.255Z" fill="#723DD8"></path><path d="M424.379 117.326C425.698 118.059 426.65 119.305 427.31 120.843V115.715V95.9317C426.357 95.8584 425.331 95.7852 424.379 95.7852V115.788V117.326Z" fill="#723DD8"></path><path d="M430.974 115.788V96.5178C429.802 96.298 428.556 96.1514 427.311 96.0049V115.788V120.917C429.142 125.313 428.41 132.127 427.311 137.256V163.413V177.628C428.556 176.822 429.802 176.016 430.974 175.136V163.413V115.788Z" fill="#713DD8"></path><path d="M430.973 96.5176V115.788V163.413V175.136C431.998 174.403 432.951 173.597 433.903 172.792V97.177C432.951 96.9572 431.998 96.6641 430.973 96.5176Z" fill="#703DD8"></path><path d="M433.904 97.1768V172.791C434.93 171.912 435.883 171.033 436.835 170.08V98.2758C435.883 97.8362 434.93 97.4698 433.904 97.1768Z" fill="#6F3DD8"></path><path d="M436.834 98.2754V170.08C437.86 169.054 438.812 168.028 439.765 166.929V99.7408C438.812 99.1546 437.86 98.715 436.834 98.2754Z" fill="#6E3DD9"></path><path d="M439.766 99.7412V166.93C440.791 165.684 441.744 164.439 442.696 163.193V101.719C441.744 100.987 440.791 100.327 439.766 99.7412Z" fill="#6D3ED9"></path><path d="M442.697 101.72V163.193C444.016 161.288 445.262 159.31 446.361 157.258V105.237C445.262 103.918 444.016 102.746 442.697 101.72Z" fill="#6C3ED9"></path><path d="M447.826 182.463H449.292V178.066L447.826 182.463Z" fill="#6B3ED9"></path><path d="M446.359 105.236V157.258C447.312 155.499 448.118 153.594 448.851 151.763C448.997 151.763 449.144 151.689 449.29 151.689V109.633C448.411 108.021 447.458 106.555 446.359 105.236Z" fill="#6B3ED9"></path><path d="M449.291 178.067V182.463H452.222V169.714L449.291 178.067Z" fill="#6A3EDA"></path><path d="M450.463 112.051C450.097 111.171 449.731 110.366 449.291 109.633V151.69C450.317 151.47 451.269 151.177 452.222 150.81V117.399C451.782 115.494 451.196 113.736 450.463 112.051Z" fill="#6A3EDA"></path><path d="M453.32 132.273C453.613 127.364 453.393 122.162 452.221 117.326V150.737C453.246 150.371 454.199 149.858 455.151 149.345V132.346C454.565 132.42 453.979 132.346 453.32 132.273Z" fill="#693EDA"></path><path d="M452.221 169.714V182.463H455.151V161.361L452.221 169.714Z" fill="#693EDA"></path><path d="M455.152 132.346V149.344C456.178 148.758 457.131 148.026 458.083 147.293V131.979C457.131 132.199 456.178 132.346 455.152 132.346Z" fill="#683EDA"></path><path d="M455.152 161.362V182.463H458.083V153.009L455.152 161.362Z" fill="#683EDA"></path><path d="M458.084 131.98V147.294C459.183 146.414 460.209 145.389 461.161 144.289L458.084 153.009V182.463H461.747V130.368C460.575 131.101 459.403 131.614 458.084 131.98Z" fill="#673FDA"></path><path d="M461.746 130.368V182.463H464.677V128.17C463.798 128.976 462.772 129.782 461.746 130.368Z" fill="#663FDB"></path><path d="M464.678 128.17V182.463H467.609V124.946C466.729 126.045 465.777 127.144 464.678 128.17Z" fill="#653FDB"></path><path d="M468.413 123.847C468.194 124.213 467.901 124.58 467.607 124.946V182.463H470.538V117.839L468.413 123.847Z" fill="#643FDB"></path><path d="M470.539 117.839V182.463H473.397L473.47 182.17V109.56L470.539 117.839Z" fill="#633FDB"></path><path d="M473.469 109.56V182.243L473.615 181.95C474.714 178.433 475.887 174.916 477.132 171.473V99.2285L473.469 109.56Z" fill="#6240DC"></path><path d="M477.426 98.2021L477.133 99.2279V171.472C478.085 168.688 479.038 165.977 480.064 163.193V98.2021H477.426Z" fill="#6140DC"></path><path d="M480.064 98.2021V163.193C481.017 160.628 481.969 158.137 482.995 155.646V98.2021H480.064Z" fill="#6040DC"></path><path d="M482.994 98.2021V155.646C483.947 153.301 484.899 151.03 485.925 148.758V98.2021H482.994Z" fill="#5F40DC"></path><path d="M485.926 98.2021V148.685C486.439 147.513 486.952 146.34 487.538 145.168C487.904 144.362 488.344 143.41 488.857 142.384V98.2021H485.926Z" fill="#5E40DD"></path><path d="M488.855 98.2021V142.457C489.881 140.406 491.127 137.988 492.519 135.57V98.2021H488.855Z" fill="#5D41DD"></path><path d="M492.52 98.2021V135.57C493.399 133.958 494.425 132.419 495.45 130.807V98.2021H492.52Z" fill="#5C41DD"></path><path d="M496.55 114.981L498.382 109.559V98.2021H495.451V130.807C496.404 129.415 497.356 128.023 498.382 126.777V112.123C497.796 113.076 497.21 114.102 496.55 114.981Z" fill="#5B41DD"></path><path d="M501.311 172.131V160.921C500.505 164.877 500.358 168.688 501.311 172.131Z" fill="#5A41DE"></path><path d="M501.312 100.986V98.2021H498.381V109.559L501.312 100.986Z" fill="#5A41DE"></path><path d="M498.601 111.758C498.527 111.905 498.454 111.978 498.381 112.124V126.778C499.333 125.606 500.286 124.507 501.312 123.481V108.388C500.359 109.487 499.407 110.659 498.601 111.758Z" fill="#5A41DE"></path><path d="M501.312 108.387V123.48C502.265 122.528 503.218 121.649 504.243 120.989V105.383C503.218 106.335 502.192 107.361 501.312 108.387Z" fill="#5941DE"></path><path d="M501.312 160.921V172.132C501.899 174.183 502.851 176.088 504.243 177.774V151.616C502.998 154.694 501.972 157.844 501.312 160.921Z" fill="#5941DE"></path><path d="M502.265 98.2021H501.312V100.986L502.265 98.2021Z" fill="#5941DE"></path><path d="M504.242 105.383V120.916C505.415 120.037 506.66 119.378 507.906 118.938V102.306C506.587 103.258 505.415 104.284 504.242 105.383Z" fill="#5841DE"></path><path d="M504.242 151.616V177.774C505.048 178.799 506.074 179.752 507.246 180.704C507.466 180.851 507.686 180.998 507.906 181.144V143.483C506.66 146.048 505.341 148.832 504.242 151.616Z" fill="#5841DE"></path><path d="M507.906 143.484V181.144C508.859 181.804 509.885 182.39 510.837 182.83V137.549C509.885 139.454 508.932 141.432 507.906 143.484Z" fill="#5742DE"></path><path d="M507.906 102.306V118.939C508.712 118.646 509.518 118.499 510.324 118.426C510.544 118.426 510.691 118.426 510.837 118.426V100.328C509.811 100.914 508.859 101.574 507.906 102.306Z" fill="#5742DE"></path><path d="M513.695 131.54C512.889 133.372 511.937 135.35 510.838 137.548V182.829C511.79 183.269 512.816 183.635 513.769 183.928V131.394C513.769 131.467 513.695 131.467 513.695 131.54Z" fill="#5642DF"></path><path d="M510.838 100.328V118.425C512.083 118.352 513.036 118.572 513.769 118.865V98.7891C512.743 99.2287 511.79 99.7416 510.838 100.328Z" fill="#5642DF"></path><path d="M513.768 98.7885V118.865C517.944 120.696 515.453 127.51 513.768 131.394V183.928C514.72 184.221 515.746 184.368 516.698 184.441V97.543C515.673 97.9093 514.72 98.2757 513.768 98.7885Z" fill="#5542DF"></path><path d="M516.699 97.5434V184.441C517.945 184.515 519.117 184.515 520.363 184.441V96.5176C519.117 96.7374 517.872 97.1037 516.699 97.5434Z" fill="#5442DF"></path><path d="M520.363 96.5177V184.368C521.316 184.295 522.342 184.075 523.294 183.855V96.1514C522.342 96.2246 521.316 96.2979 520.363 96.5177Z" fill="#5342DF"></path><path d="M523.293 96.1507V183.855C524.245 183.635 525.271 183.342 526.224 182.975V96.1507C525.271 96.0774 524.245 96.0774 523.293 96.1507Z" fill="#5243E0"></path><path d="M529.009 161.361C524.686 159.749 527.543 153.301 529.155 150.004V96.5168C528.203 96.297 527.177 96.1504 526.225 96.0771V182.902C527.177 182.536 528.203 182.096 529.155 181.656V161.361C529.082 161.361 529.082 161.361 529.009 161.361Z" fill="#5143E0"></path><path d="M529.154 161.435V181.73C530.18 181.217 531.133 180.705 532.085 180.118V161.654C531.059 161.728 530.034 161.728 529.154 161.435Z" fill="#5043E0"></path><path d="M529.447 149.345C530.18 147.806 531.059 146.048 532.085 144.216V97.4701C531.133 97.1037 530.107 96.7374 529.154 96.5176V150.005C529.301 149.785 529.374 149.565 529.447 149.345Z" fill="#5043E0"></path><path d="M532.086 161.581V180.045C533.332 179.312 534.577 178.433 535.749 177.553V160.335C534.504 160.921 533.258 161.361 532.086 161.581Z" fill="#4F43E0"></path><path d="M535.749 137.182V99.448C535.603 99.3747 535.456 99.2282 535.31 99.1549C534.211 98.4955 533.185 97.9826 532.086 97.543V144.289C533.258 142.018 534.504 139.673 535.749 137.182Z" fill="#4F43E0"></path><path d="M535.75 160.336V177.554C536.776 176.821 537.728 176.015 538.681 175.209V158.577C537.728 159.237 536.776 159.823 535.75 160.336Z" fill="#4E43E1"></path><path d="M538.681 131.028V101.793C537.875 100.987 536.849 100.181 535.75 99.4482V137.182C536.776 135.204 537.728 133.079 538.681 131.028Z" fill="#4E43E1"></path><path d="M538.68 158.577V175.209C539.705 174.33 540.658 173.378 541.61 172.498V156.232C540.731 156.965 539.779 157.771 538.68 158.577Z" fill="#4D44E1"></path><path d="M541.61 123.261V105.896C540.878 104.431 539.925 103.039 538.68 101.793V131.028C539.779 128.463 540.805 125.826 541.61 123.261Z" fill="#4D44E1"></path><path d="M543.003 154.914C542.637 155.353 542.124 155.793 541.611 156.233V172.499C542.637 171.473 543.663 170.447 544.542 169.421V153.155C543.883 153.888 543.297 154.547 543.003 154.914Z" fill="#4C44E1"></path><path d="M541.611 105.823V123.188C543.516 116.96 544.029 110.879 541.611 105.823Z" fill="#4C44E1"></path><path d="M547.325 149.199C547.252 149.859 545.787 151.69 544.541 153.156V169.348C544.761 169.055 544.981 168.835 545.2 168.542C546.006 167.663 546.739 166.711 547.472 165.758V144.29C547.325 145.902 547.472 147.734 547.325 149.199Z" fill="#4B44E1"></path><path d="M547.473 144.143C547.473 144.216 547.473 144.216 547.473 144.289V165.757C548.132 164.878 548.792 163.999 549.451 163.119C549.964 164.365 550.477 165.537 551.136 166.636V128.756C549.231 133.738 547.986 138.94 547.473 144.143Z" fill="#4A44E2"></path><path d="M551.137 128.83V166.71C552.016 168.322 552.968 169.861 554.068 171.18V122.455C552.968 124.507 552.016 126.631 551.137 128.83Z" fill="#4944E2"></path><path d="M554.066 122.455V171.179C554.946 172.352 555.971 173.378 556.997 174.403V117.619C555.971 119.158 554.946 120.77 554.066 122.455Z" fill="#4844E2"></path><path d="M556.998 117.545V174.33C557.951 175.209 558.903 176.015 559.929 176.821V113.589C558.903 114.908 557.951 116.227 556.998 117.545Z" fill="#4745E2"></path><path d="M559.928 113.589V176.821C560.88 177.554 561.833 178.14 562.859 178.726V110.219C561.833 111.318 560.88 112.417 559.928 113.589Z" fill="#4645E3"></path><path d="M562.859 110.292V178.8C564.032 179.459 565.277 180.119 566.523 180.631V106.849C565.277 107.874 564.032 109.047 562.859 110.292Z" fill="#4545E3"></path><path d="M566.523 106.849V180.631C567.476 181.071 568.428 181.437 569.454 181.73V104.504C568.428 105.237 567.476 106.043 566.523 106.849Z" fill="#4445E3"></path><path d="M569.453 104.504V181.73C570.406 182.023 571.358 182.39 572.384 182.609V102.525C571.358 103.185 570.406 103.844 569.453 104.504Z" fill="#4345E3"></path><path d="M573.63 155.939C573.557 155.719 572.605 153.228 572.898 153.228C573.704 153.374 574.51 153.521 575.316 153.594V139.233V138.574C574.51 138.574 573.704 138.574 572.971 138.574C573.484 136.229 574.29 133.738 575.316 131.247V113.662V100.986C574.29 101.499 573.337 102.085 572.385 102.672V182.756C573.337 182.975 574.363 183.195 575.316 183.415V158.943C574.656 157.99 574.07 157.038 573.63 155.939Z" fill="#4246E4"></path><path d="M575.314 158.797V183.269C576.267 183.489 577.293 183.635 578.245 183.782V161.508C577.146 160.775 576.12 159.896 575.314 158.797Z" fill="#4146E4"></path><path d="M575.314 131.174C576.12 129.269 577.073 127.437 578.245 125.679V113.589V99.5215C577.219 99.9611 576.267 100.401 575.314 100.914V113.589V131.174Z" fill="#4146E4"></path><path d="M578.245 138.354C577.219 138.428 576.267 138.501 575.314 138.501V139.16V153.521C576.267 153.668 577.293 153.741 578.245 153.814V139.16V138.354Z" fill="#4146E4"></path><path d="M578.246 161.508V183.782C579.492 183.928 580.664 184.075 581.91 184.148V163.193C580.591 162.753 579.345 162.241 578.246 161.508Z" fill="#4046E4"></path><path d="M581.91 137.842C580.664 138.062 579.418 138.281 578.246 138.355V139.234V153.888C579.492 153.961 580.664 154.034 581.91 154.034V139.234V137.842Z" fill="#4046E4"></path><path d="M578.246 125.679C579.345 123.994 580.517 122.455 581.91 121.137V113.59V98.1299C580.664 98.4962 579.418 99.0091 578.246 99.522V113.59V125.679Z" fill="#4046E4"></path><path d="M581.91 163.193V184.149C582.863 184.222 583.888 184.295 584.841 184.295V163.926C583.815 163.706 582.863 163.486 581.91 163.193Z" fill="#3F46E4"></path><path d="M584.841 137.108C583.888 137.401 582.863 137.621 581.91 137.768V139.16V153.96C582.863 153.96 583.888 153.96 584.841 153.887V139.233V137.108Z" fill="#3F46E4"></path><path d="M581.91 121.136C582.863 120.257 583.815 119.377 584.841 118.718V113.589V97.3232C583.815 97.5431 582.863 97.8361 581.91 98.1292V113.589V121.136Z" fill="#3F46E4"></path><path d="M584.84 163.853V184.222C585.792 184.222 586.818 184.222 587.771 184.222V164.146C586.745 164.146 585.792 163.999 584.84 163.853Z" fill="#3E46E5"></path><path d="M584.84 118.718C585.719 118.132 586.672 117.546 587.697 117.18H587.771V113.589V96.7373C586.818 96.8838 585.792 97.1036 584.84 97.3235V113.589V118.718Z" fill="#3E46E5"></path><path d="M587.771 136.156C586.818 136.523 585.866 136.816 584.84 137.109V139.234V153.961C585.792 153.888 586.818 153.814 587.771 153.741V139.234V136.156Z" fill="#3E46E5"></path><path d="M587.771 164.146V184.221C588.724 184.221 589.75 184.148 590.702 184.075V164.146C589.75 164.219 588.724 164.219 587.771 164.146Z" fill="#3D47E5"></path><path d="M587.771 117.106C588.797 116.667 589.75 116.374 590.702 116.227V113.59V96.3711C589.75 96.4444 588.724 96.5909 587.771 96.7374V113.59V117.106Z" fill="#3D47E5"></path><path d="M590.702 134.91C589.75 135.35 588.797 135.789 587.771 136.156V139.233V153.741C588.724 153.667 589.75 153.521 590.702 153.374V139.233V134.91Z" fill="#3D47E5"></path><path d="M590.701 164.146V184.075C591.654 184.002 592.679 183.928 593.632 183.782V163.853C592.679 164.072 591.654 164.146 590.701 164.146Z" fill="#3C47E5"></path><path d="M593.632 133.152C592.679 133.812 591.727 134.398 590.701 134.911V139.234V153.375C591.654 153.228 592.679 153.008 593.632 152.789V139.234V133.152Z" fill="#3C47E5"></path><path d="M590.701 116.227C591.727 116.081 592.679 116.007 593.632 116.081V113.59V96.2246C592.679 96.2246 591.654 96.2979 590.701 96.3712V113.59V116.227Z" fill="#3C47E5"></path><path d="M593.633 163.926V183.855C594.878 183.709 596.051 183.562 597.296 183.343V163.34C596.124 163.56 594.878 163.779 593.633 163.926Z" fill="#3B47E5"></path><path d="M593.633 116.081C595.025 116.227 596.271 116.594 597.296 117.253V113.59V96.2979C597.076 96.2979 596.857 96.2979 596.637 96.2246C595.611 96.1513 594.659 96.1514 593.633 96.1514V113.59V116.081Z" fill="#3B47E5"></path><path d="M597.296 129.855C596.271 131.101 595.025 132.2 593.633 133.153V139.234V152.789C594.878 152.496 596.124 152.203 597.296 151.836V139.234V129.855Z" fill="#3B47E5"></path><path d="M597.295 163.339V183.342C598.247 183.195 599.273 182.975 600.226 182.829V162.68C599.273 162.899 598.321 163.119 597.295 163.339Z" fill="#3A47E6"></path><path d="M597.295 117.326C600.299 119.231 601.398 123.261 598.541 128.097C598.174 128.683 597.735 129.269 597.295 129.855V139.234V151.836C598.321 151.543 599.273 151.177 600.226 150.811V139.234V113.59V96.5909C599.273 96.4444 598.321 96.3711 597.295 96.2979V113.59V117.326Z" fill="#3A47E6"></path><path d="M600.227 162.68V182.829C601.179 182.609 602.205 182.39 603.157 182.17V161.801C602.205 162.167 601.252 162.387 600.227 162.68Z" fill="#3947E6"></path><path d="M600.227 139.234V150.884C601.252 150.517 602.205 150.078 603.157 149.638V139.234V113.589V97.177C602.205 96.9572 601.252 96.7374 600.227 96.5908V113.589V139.234Z" fill="#3947E6"></path><path d="M604.917 161.215C604.331 161.435 603.744 161.655 603.158 161.801V182.17C604.184 181.95 605.136 181.657 606.089 181.364V160.775C605.723 160.922 605.356 161.068 604.917 161.215Z" fill="#3847E6"></path><path d="M603.158 139.234V149.638C604.184 149.198 605.136 148.686 606.089 148.173V98.056C605.136 97.7629 604.184 97.4698 603.158 97.1768V113.589V139.234Z" fill="#3847E6"></path><path d="M606.088 160.775V181.364C606.528 181.217 606.967 181.144 607.407 180.997C608.213 180.778 608.945 180.485 609.751 180.265V159.236C608.579 159.749 607.333 160.262 606.088 160.775Z" fill="#3748E6"></path><path d="M609.751 145.829V99.522C608.579 98.9359 607.407 98.423 606.088 97.9834V148.1C607.333 147.441 608.579 146.708 609.751 145.829Z" fill="#3748E6"></path><path d="M610.192 145.535C611.071 144.876 611.877 144.216 612.683 143.557V101.28C611.73 100.621 610.778 100.108 609.752 99.5947V145.828C609.898 145.755 610.045 145.608 610.192 145.535Z" fill="#3648E7"></path><path d="M609.752 159.163V180.264C610.704 179.898 611.73 179.605 612.683 179.239V157.771C611.73 158.21 610.704 158.723 609.752 159.163Z" fill="#3648E7"></path><path d="M615.612 140.699V103.552C614.733 102.746 613.707 101.94 612.682 101.28V143.557C613.707 142.678 614.733 141.725 615.612 140.699Z" fill="#3548E7"></path><path d="M612.682 157.698V179.166C613.634 178.8 614.66 178.36 615.612 177.994V156.086C614.66 156.599 613.707 157.185 612.682 157.698Z" fill="#3548E7"></path><path d="M618.398 154.327C617.518 154.913 616.566 155.5 615.613 156.012V177.92C616.566 177.48 617.592 177.041 618.544 176.601V154.181C618.471 154.254 618.398 154.327 618.398 154.327Z" fill="#3448E7"></path><path d="M618.544 137.035V106.775C617.665 105.602 616.712 104.577 615.613 103.551V140.699C616.712 139.526 617.665 138.281 618.544 137.035Z" fill="#3448E7"></path><path d="M621.476 131.541V111.758C620.743 109.999 619.717 108.314 618.545 106.775V137.036C619.717 135.277 620.743 133.446 621.476 131.541Z" fill="#3348E7"></path><path d="M618.545 154.254V176.674C619.497 176.161 620.523 175.722 621.476 175.209V152.275C620.523 152.862 619.571 153.594 618.545 154.254Z" fill="#3348E7"></path><path d="M621.475 111.83V131.613C624.186 124.945 624.112 117.838 621.475 111.83Z" fill="#3249E8"></path><path d="M623.38 151.03C622.72 151.397 622.061 151.836 621.475 152.276V175.136C622.72 174.477 623.966 173.744 625.138 173.011V155.06L623.38 151.03Z" fill="#3249E8"></path><path d="M625.139 155.134V173.085C626.164 172.499 627.117 171.839 628.069 171.18V162.094L625.139 155.134Z" fill="#3149E8"></path><path d="M628.068 162.021V171.106C629.094 170.373 630.047 169.714 630.999 168.908L628.068 162.021Z" fill="#3049E8"></path></g><defs><clipPath id="clip0_1296_1017"><rect width="631" height="186" fill="white"></rect></clipPath></defs></svg> 