<?xml version="1.0" encoding="UTF-8"?> <svg xmlns="http://www.w3.org/2000/svg" width="631" height="420" viewBox="0 0 631 420" fill="none"><path d="M39.2 293.4c-2 0-3.9-.2-5.7-.4a37.4 37.4 0 0 1-15-5 34.3 34.3 0 0 1-11.4-11.4l-.3-.5-.8-1c-3-5.2-5-10.9-5.7-16.8a16.7 16.7 0 0 1 8.4-16.6l8.9-5.8a37 37 0 0 1 10.6-5.5h.5a17 17 0 0 1 3.7-.5 12.4 12.4 0 0 1 11 6.6c1.3 1.7 2.1 3.5 2.6 5.5 0 .4.2.8.4 1.2l.3.2h.9c.6 0 2.2-.7 4.8-3.8 3-4.1 5-8.9 5.7-13.8l9.1-40.9-8.2 1.7a12 12 0 0 1-9.3-1.7c-1.5-1-2.9-2.5-3.7-4.2a11.8 11.8 0 0 1-2.4-9 526.6 526.6 0 0 1 3.2-21 14.1 14.1 0 0 1 11.3-12.4l42.7-7a48.5 48.5 0 0 1 10.7-1.5c2.2 0 4.3.5 6.2 1.6a11 11 0 0 1 4.2 4.5c1.7 2.3 2.6 5.1 2.5 8v2.8L121 163l-2.7 12.7-2.3 10.7-1 4.7a52.2 52.2 0 0 1 36.2-16.4c3.2 0 6.3.5 9.3 1.5a20.1 20.1 0 0 1 8.4-3.7l10.6-2.3h2.4a11.7 11.7 0 0 1 10.2 6c1.4 1.8 2.2 3.8 2.5 6a62.9 62.9 0 0 1 18.5-13.8 50.4 50.4 0 0 1 20.6-5.1c6.1 0 12.1 1.6 17.4 4.7 2.4 1.5 4.5 3.4 6.4 5.5 1.7-11 5.6-32.8 5.8-33 .6-3 2-5.6 4.2-7.7 2-2.2 4.7-3.7 7.6-4.3h.4a167.6 167.6 0 0 1 20.6-2h1.1c1.6 0 3.2.3 4.6.9 1.5.6 2.8 1.5 4 2.6.6.7 1.1 1.5 1.6 2.4 1 1.3 1.7 3 2 4.6a11 11 0 0 1 0 5.1l-3.4 16.3 4-4.1.7-.7c2.3-2 5.2-3.2 8.2-3.5h.8c3 0 5.8 1.1 8 3.2l6.2 5.4 3.7 3.5a17 17 0 0 1 2.8-3.5c2.1-2 4.8-3.4 7.7-4 2.1-.3 4.3-.6 6.5-.6h5.6c3.3 0 6.5 1.1 9 3.3A42.2 42.2 0 0 1 389 151h2.4c1.7 0 3.3 0 5 .2h.3c5.1.6 10 2.4 14.2 5.4a28 28 0 0 1 7.7 8.3c1 1.4 1.8 2.8 2.5 4.3v.3a58.4 58.4 0 0 1 17-15.6 45.3 45.3 0 0 1 17.5-6.2 33 33 0 0 1 9.7-6.3l.8-.2h.3l.8-.3a14.9 14.9 0 0 1 9 .8 13 13 0 0 1 7.6 14l1 1.1 1.8 2.4.7-2.5a10.9 10.9 0 0 1 11-7.1l2.1-9.7a14.1 14.1 0 0 1 12.2-11h4.6l6.4-.3 4-.5h1.1c3.4 0 6.7 1 9.3 3.3 1 1 2 2.1 2.6 3.4a12.1 12.1 0 0 1 2.2 10l-.9 4.2a9.4 9.4 0 0 1 8.2 5.1c1.2 1.4 1.9 3 2.1 4.8a44.6 44.6 0 0 1 27.9-10.7h1.9a35.4 35.4 0 0 1 16.5 3.8l2.7-1.1c1.8-.6 3.7-1 5.6-1h.3l10.6-.2h.6a12.2 12.2 0 0 1 10.2 6.4 12.4 12.4 0 0 1 2.2 10.1l-12.2 67.2v.3a15 15 0 0 1-4.7 7.9 14 14 0 0 1-8.2 3.4h-1.3c2.1 1.6 3.8 3.6 5 6 1.3 2.9 2 6 2 9.1a40 40 0 0 1-1.7 12.7l-1 3.4-.7 3.4-.8 2.9a11.1 11.1 0 0 1-10.8 8.6h-.6c-1.4 0-2.8-.2-4.2-.4-.8 0-1.7 0-2.5-.3h-.5a9.4 9.4 0 0 1-4.8-1.8 10.8 10.8 0 0 1-6.6 2.1h-7c-2.3 0-4.5-.7-6.3-2-1.5 1-3.3 1.6-5.2 1.8h-8c-2.5 0-5-1-6.9-2.7a23 23 0 0 1-11.4 2.9H531c-4.3-.1-8.4-1.7-11.6-4.6-1 .6-1.9 1.3-3 1.8-3.4 2-7.4 3-11.4 3a20.9 20.9 0 0 1-11.2-3.2l-1 1.7a14.8 14.8 0 0 1-10 3.4c-.8 0-1.8 0-2.7-.2a12.9 12.9 0 0 1-9.8-6.9c-1.4-2.9-2-6.2-1.4-9.4a18 18 0 0 1 4.4-9.2 15.4 15.4 0 0 1 11.2-5.1h1a28.3 28.3 0 0 1 16.4-18.8 20.2 20.2 0 0 1-12.8-9.7c-2.6-3.7-4-8-4.2-12.6v-.3l-.6 1a56.7 56.7 0 0 1-17 16.7 45 45 0 0 1-24.4 6.7h-1.2a29.7 29.7 0 0 1-26.1-14.5 39 39 0 0 1-2.6-4.4 55 55 0 0 1-17.6 16.8 49 49 0 0 1-31 6l-5 22.5a14.3 14.3 0 0 1-11.8 11h-.5l-4.7.5-2.9.2-3.8.4c-1.2 0-2.3.2-3.5.4h-2a11.4 11.4 0 0 1-9-4.2c-1.3-2-2.4-4.3-3.2-6.8-.4-1.7-.4-3.5 0-5.2l3.5-19.4-4.7 4-.6.6a13 13 0 0 1-6.6 2.6h-1a11.3 11.3 0 0 1-10.3-5.4l-8.7-12.2-1 5.4a15 15 0 0 1-11.6 11.5h-.9l-1.6.2-2.7.4-8.4 1.2-1.5.2-2.6.4a16 16 0 0 1-6.5-1 12 12 0 0 1-5.6-5 11 11 0 0 1-1.8-3.5 55 55 0 0 1-30 15.2 46.4 46.4 0 0 1-16.5-1.2 29.8 29.8 0 0 1-15.7-12.4l-1.2 6.5c-.6 2.9-2 5.5-4.2 7.6a15.5 15.5 0 0 1-7.2 4.5c-2.3.5-4.6 1-7 1.3l-5 .7h-2c-1.2 0-2.3 0-3.5-.3a10 10 0 0 1-4.2-1.5l-3 1.8a46.4 46.4 0 0 1-22 5.8h-.4a25.4 25.4 0 0 1-23-12 26.6 26.6 0 0 1-3.6-6.9 84.1 84.1 0 0 1-28.5 28.7 65.2 65.2 0 0 1-29 8l-.2-.1Zm483.6-49 .9.6 1.5 1.3 2.6-1.7c3.8-2.2 8-3.3 12.4-3.2h1.3a16 16 0 0 1 9.2 3c1.2-.7 2.4-1.3 3.7-1.6-7-2.1-13-6.8-16.7-13l-.3-.6-1.5 4.8-.1.6a13.2 13.2 0 0 1-9.3 9 22 22 0 0 1-3.7.8Zm57.7-1.7 2.1 1c1-.6 2-1 3.2-1.3-.6-.3-1-.7-1.5-1.2l-2.9 1.2-.9.3Z" fill="#010101"></path><path d="m104.8 194.8-2.4 12.5c-1 4.6-2 10-3.1 16.2A80.5 80.5 0 0 1 79 264.6a63 63 0 0 1-31.5 18c-4.3.9-8.7 1-13 .6-4-.5-7.8-1.8-11.2-3.8a25 25 0 0 1-8.4-8.4l-.4-.5-.7-1.1c-2.3-4-3.8-8.3-4.4-12.8a7.1 7.1 0 0 1 4-7.2c3.1-2 6.2-4 9.2-6.2a29.7 29.7 0 0 1 9.5-4.4c.5 0 1 0 1.4.3.5.2.9.5 1.2.9.3.3.5.8.7 1.3.7.6 1.1 1.5 1.3 2.4.4 1.5 1 2.9 1.7 4.2.7 1 1.5 1.8 2.5 2.5a10.4 10.4 0 0 0 8.4 1.8c4-1 7.6-3.5 10.1-6.9 4-5.2 6.6-11.3 7.7-17.7l12.3-55.4-22.1 4.7c-.9.2-1.7 0-2.5-.4l-.6-.6-.2-.9h-.3c-.3-.2-.5-.6-.7-1a315.6 315.6 0 0 1 1.5-11.2l1.7-10.6c.2-1 .6-2 1.2-2.7.6-.9 1.4-1.5 2.4-1.8 14.2-2.5 28.3-5 42.5-7.3l4.2-.8c1.5-.3 3-.5 4.6-.6.7-.1 1.5 0 2.2.3.3.2.5.4.6.7.2.3.2.6.2.9h.3a2 2 0 0 1 .8 2.2v1.3a463.9 463.9 0 0 1-6 29L107 184l-2.1 10.7Zm79.9-13.2c.3.3.5.7.6 1v1.2c-4.3 23.2-8.4 46.4-12.4 69.6a6.5 6.5 0 0 1-1.7 2.9 7 7 0 0 1-2.8 1.9c-1.9.4-3.8.8-5.7 1a34 34 0 0 0-5.5.8h-2.6c-.8 0-1.3-.8-1.7-2-.6-.4-1-1.1-1.2-1.9l-.4-2c-2.8 2.8-6 5.2-9.4 7a36.3 36.3 0 0 1-18 4.7 16.4 16.4 0 0 1-15.4-7.8c-.7-1-1.4-2-1.8-3a39.1 39.1 0 0 1-1.8-23 65.4 65.4 0 0 1 12.6-29.4c3.3-4.3 7.2-8 11.6-11 4.6-3.2 9.7-5.4 15.1-6.6a27 27 0 0 1 11.5-.4c3 .6 5.7 2 7.8 4.2l1.8-3.5c.6-1 1.4-1.9 2.5-2.4 1-.5 2-.8 3.2-1l10.6-2.3h1.2c.4.1.7.3 1 .6.3.4.5.8.6 1.3l.5.3-.2-.2Zm-30.4 33.2a22.4 22.4 0 0 0-1.7-8.3l-.5-.6c-.5-.5-1.2-1-1.9-1.1-.6-.3-1.4-.3-2-.3a13 13 0 0 0-8 3.8 29.4 29.4 0 0 0-6 8.1 43.1 43.1 0 0 0-4.4 20c.1 2.3.7 4.4 1.6 6.4.6.7 1.4 1.3 2.4 1.7 1 .3 2 .4 3 .3a13.7 13.7 0 0 0 10.4-6.5c2.7-4 4.8-8.4 6-13l.6-3.2c.5-2.4.7-4.9.6-7.3h-.1ZM256.2 192c-.6-3.6-2-7-4.1-10a16.8 16.8 0 0 0-6-6.4c-4.8-2.8-10.5-4-16-3.1-4.6.6-9 2-13.1 4a59 59 0 0 0-23.1 21.1c-3.2 5-5.4 10.6-6.6 16.4-1.5 5.8-2 11.8-1.1 17.7.6 4 2 7.7 4.2 11 2.5 4.4 6.7 7.8 11.6 9.3a28 28 0 0 0 12.4 1c6.4-.8 12.5-3.2 17.8-6.8a50.5 50.5 0 0 0 16.4-18.3 4 4 0 0 0 0-1.8c-.2-.6-.5-1.2-1-1.6a2.7 2.7 0 0 0-2-2l-2.2-.7-1.7-.7-2.4-1.2c-1.2-.7-2.4-1.1-3.6-1.4-.5-.2-1.1-.2-1.6-.2a3 3 0 0 0-1.5.7 12 12 0 0 0-2.3 3c-4.1 6.8-8.9 10.2-14.2 10-1 .1-2.1-.1-3-.6a7 7 0 0 1-2.5-2l-.8-1.7a28 28 0 0 1 .4-16c1-5 3.4-9.9 7-13.7 2.4-2.8 5.7-4.6 9.4-5.3a8 8 0 0 1 6.1 1.7c.4.2.7.6 1 .9.5 1.3.9 2.7 1 4.2 0 .7.3 1.4.8 1.9l.4.2c0 .5.3 1 .7 1.4.4.5 1.2.5 2.3 0l3.5-1.6 7-3.5 1.7-.8 2-.8a4 4 0 0 0 2.7-4.7l.4.4Zm71.2 35.2-.6-.7c0-.3-.2-.7-.5-1l-19.3-23 26.6-25.2c.6-.6 1-1.4 1.2-2.3v-1c0-.4-.1-.8-.4-1l-.7-.9c0-.3-.1-.6-.3-.8a78 78 0 0 0-5.7-5.8l-6.3-5.5a2.6 2.6 0 0 0-2.1-.8c-1.2.2-2.2.7-3 1.5l-26.2 27 9.7-48c.3-1.2 0-2-1-2.3 0-1.3-.7-1.9-2.6-1.7a125.3 125.3 0 0 0-19.5 1.9 6.8 6.8 0 0 0-4.5 4.5 501321.7 501321.7 0 0 0-18 101.7c.1.5.3.8.6 1.2l.5.3c0 .5.2 1 .5 1.3.3.3.7.5 1 .6h1.2c.8 0 1.5-.2 2.3-.3l2.1-.4 8-1.1 2.2-.3c.8 0 1.5-.2 2.3-.3a5.6 5.6 0 0 0 4.2-4l2.8-14.5 6.6-6.3 17.4 24.4c.1.5.4.8.8 1 .4.3.8.4 1.3.4.7-.2 1.4-.5 2-1l16-13.2c.9-.6 1.5-1.5 1.8-2.4.2-.3.2-.7.1-1 0-.4-.2-.7-.5-1Zm87.9-43.3a60.7 60.7 0 0 1-13.3 40.4 40 40 0 0 1-26.8 14.9c-7.7 1-13.7-.3-17.8-3.9l-7.5 33.5c-.2 1-.7 1.8-1.4 2.5-.8.7-1.7 1.1-2.8 1.3l-4 .3c-1.2 0-2.4.1-3.5.3a16 16 0 0 1-3.5.4c-1.3 0-2.6.2-4.2.4-.4.2-.8.2-1.2 0-.4 0-.8-.3-1-.6a2 2 0 0 1-.5-1.2c-.3 0-.4-.3-.6-.4-.3-.4-.4-.7-.5-1.2v-1.2l18.1-101.2c.3-1 .9-2 1.7-2.7.8-.8 1.9-1.4 3-1.6l5.1-.6h5c1-.1 1.8 0 2.6.5a4 4 0 0 1 1.8 1.8l.2.5.9 1.1 1.3 3.5c3-3 6.4-5.3 10.1-7.1 4-2 8.3-3 12.7-3.2h6.1a19.4 19.4 0 0 1 15.4 9.7l1.9 3.1c1.5 3.3 2.3 6.9 2.5 10.5l.2.2Zm-25.9 5.7c-.2-2.2-.7-4.3-1.7-6.3a6.1 6.1 0 0 0-2.3-1.8 6 6 0 0 0-3-.6c-2.8 0-5.6 1-7.8 3-2.3 2-4.2 4.5-5.6 7.3a36.9 36.9 0 0 0-4 19.2c.2 2.3.8 4.6 1.8 6.6a5.5 5.5 0 0 0 4.4 2c3 0 5.8-1 8-2.9a24 24 0 0 0 6-7.3 39.1 39.1 0 0 0 4.1-19.2h.1Zm95.8-10.5c-.6-4.6-2.3-9-5-12.9-.7-1.2-1.4-2.3-2.3-3.3a16.2 16.2 0 0 0-7-4.8c2-1 3.5-1.9 3.9-3.7v-1.7c-.2-.6-.5-1-.9-1.5a5 5 0 0 0-2-1h-2.8a25 25 0 0 0-9 6.6c-6 .3-11.9 2.1-17 5.2a49 49 0 0 0-15 14 56.6 56.6 0 0 0-8.4 18.4c-1.6 6-2 12.3-1 18.5.5 4.2 2 8.2 4.5 11.6 1 1.6 2 3.1 3.3 4.5a21 21 0 0 0 15.6 6c7.1.3 14.3-1.6 20.4-5.3a46.4 46.4 0 0 0 14.2-13.9 53.3 53.3 0 0 0 7.6-18.2c1.4-6.1 1.7-12.4.9-18.6l-.1.1Zm11.2 1.8h4.7l-2.3 10.6-3 14.2c-1 4.8-1.6 9.8-1.4 14.7 0 2.8 1 5.5 2.6 7.8.5 1 1 1.7 1.7 2.5 2.3 2.1 5.3 3.4 8.4 3.8 4.6.5 9.3.7 14 .4 1 0 2-.3 3-.5a4 4 0 0 0 2.8-2.8l3.7-14.4v-1.4a2 2 0 0 0-.8-1.2l-.2-.2c-.1-.6-.4-1-.8-1.5a3 3 0 0 0-1.1-.7c-.4-.2-.9-.2-1.3-.2-2.1.3-4.2-.2-6-1.2-.4-1.7-.3-3.5.2-5.1l2.9-13.9 2.3-12 13.6-.4c-.2 0 0-.2.3-.7.5-.5.7-1 .8-1.7l1.3-7.2c.3-2.4.7-4.9 1.2-7.2.3-.5.3-1.2 0-1.7-.2-.5-.2-.7 0-.7h-.9v-1c-.2-.4-.2-.7 0-.7h-11.6l1.4-6.7 2-9.2c.2-.4.2-.9 0-1.3 0-.4-.3-.8-.7-1h-.2c-.1-.7-.4-1.2-.9-1.6a4.9 4.9 0 0 0-3.6-.8l-4.2-.2H514a5 5 0 0 0-4 3.7 1245.3 1245.3 0 0 0-3.8 17l-7 .2c-1.5 0-2.4.2-2.6.8l-.6 2-3.1 15c-.2.6-.3 1.3-.3 2 0 .3.4.4 1.2.5v1.2c0 .4 1 .5 3 .4l-.4.4Zm125.1-16.8-12.2 67.2c-.3 1-.9 2-1.7 2.6a5 5 0 0 1-2.7 1.4H599l-5.4-.3c-.9-.1-1.8-.4-2.6-.6a3 3 0 0 1-1.6-2 4.4 4.4 0 0 1-1.3-2.3l-.5-2a34 34 0 0 1-27.4 6.3 20.9 20.9 0 0 1-15-10c-.8-1.1-1.5-2.5-2-3.8a40.9 40.9 0 0 1-1.7-23.3 56 56 0 0 1 12.3-27 40 40 0 0 1 11.6-8.8 35.7 35.7 0 0 1 26.6-2.1c3 1.1 5.7 3 7.8 5.5l1.8-3.1c.5-1 1.4-1.6 2.4-2 1-.3 2.1-.4 3.2-.4l10.5-.3c.5 0 .9.1 1.2.3.4.2.7.4 1 .8.3.3.5.7.6 1.2.2 0 .3.2.5.4.3.3.4.7.5 1.1v1.2Zm-30.8 25.4a22.8 22.8 0 0 0-1.9-9l-.3-.3a5.7 5.7 0 0 0-4-2 11 11 0 0 0-8 2.2 23 23 0 0 0-5.8 7 35.5 35.5 0 0 0-4.3 19.2 18 18 0 0 0 1.9 7 7 7 0 0 0 5 2.5 11 11 0 0 0 10.2-4.5c2.8-3.6 4.9-7.6 6-12l.6-3c.5-2.4.8-4.8.7-7.2v.1Zm-105.5 81.9a6 6 0 0 0-4.7 2 8 8 0 0 0-2.1 4.2c-.2 1.1 0 2.3.5 3.4a3.5 3.5 0 0 0 2.9 1.8 5.8 5.8 0 0 0 5.1-1.2 7.8 7.8 0 0 0 2.6-4.6 5.3 5.3 0 0 0-.4-4.3 4 4 0 0 0-3.8-1.3h-.1Zm33.1-18.9a11 11 0 0 0-6.5-2 15 15 0 0 0-5.2.9A19.3 19.3 0 0 0 494 272c.3 2 1 3.7 2.1 5.3a11 11 0 0 0 8.9 4.2 17 17 0 0 0 13.5-8c.3-.3.5-.8.4-1.3a1.2 1.2 0 0 0-.8-.9l-.9-.4-.7-.4-1-.5-1.5-.8-.6-.1-.6.1-1 1.1a6 6 0 0 1-5.7 3.5c-.7-.1-1.4-.5-2-1-.5-.5-.8-1.1-1-1.9-.5-2-.4-4.2.2-6.3.4-2 1.4-3.8 2.9-5.2a6 6 0 0 1 3.8-1.6c.5 0 .9 0 1.3.2s.8.4 1.2.8c.7.7 1.2 1.8 1.2 2.9 0 .3.1.6.3.8.2.2.5.2 1 0a9 9 0 0 1 1.4-.5l2.9-1 .7-.3.8-.2c.2 0 .4-.2.5-.3.2 0 .3-.2.4-.4l.2-.6v-.5a9.5 9.5 0 0 0-3.4-6.3h-.3Zm30.7 6.7c.3 2.5.2 5-.4 7.5a19.1 19.1 0 0 1-8.8 12.9 14.2 14.2 0 0 1-11.7 1.3c-1-.4-2-1-2.8-2a11.2 11.2 0 0 1-2.8-5.8 19 19 0 0 1 .5-7.5 21.4 21.4 0 0 1 9.6-12.8c2.5-1.5 5.4-2.1 8.4-2a7.2 7.2 0 0 1 5.5 2.6c1.4 1.7 2.3 3.7 2.5 5.9v-.1Zm-9 3.7c0-1-.1-2-.5-3a2 2 0 0 0-.6-.8l-1-.4a3.4 3.4 0 0 0-2.7 1 9 9 0 0 0-2.1 2.7c-.6 1.2-1 2.4-1.3 3.7a14 14 0 0 0-.4 3.7c0 1 .2 2 .6 3 0 .3.3.6.7.8.3.3.6.4 1 .4.5 0 1 0 1.4-.2.5-.1 1-.4 1.3-.7.8-.8 1.5-1.7 2-2.7a17.7 17.7 0 0 0 1.6-7.5Zm57.8-11a9.6 9.6 0 0 0-5.5-1.1 12 12 0 0 0-6.1 1.5 13 13 0 0 0-4.2 4.2 7.7 7.7 0 0 0-3.1-4.2 11 11 0 0 0-6.1-1.4 12 12 0 0 0-9.4 4.4l-.5-2.3c0-.6-.6-1-1.4-1h-4.9c-.4 0-.8.2-1 .5a2 2 0 0 0-.8 1.1l-4.8 26.6v.5l.2.5.4.3h7.4a2 2 0 0 0 1-.5c.3-.2.6-.6.6-1l2.6-12.5a21.6 21.6 0 0 1 2.5-6 6 6 0 0 1 1.9-2 4 4 0 0 1 2.2-1 4 4 0 0 1 2.4.7c.5.5 1 1.2 1 2 .3.9.4 1.9.2 2.8a24 24 0 0 1-.4 3.5 270.2 270.2 0 0 0-2.6 13.7l.4.3h7.5a1.5 1.5 0 0 0 1.6-1.2l1.5-6.3 1.5-6.4a21 21 0 0 1 2.5-6c.5-.8 1.2-1.5 2-2a4 4 0 0 1 2.2-.9c.8-.1 1.6.1 2.3.6.6.6 1 1.2 1.1 2a8 8 0 0 1 0 2.8l-.5 3.5-1.5 6.1a141.3 141.3 0 0 0-1.5 6.8l.2.5.2.3.5.1c1.2 0 2.3.2 3.5.4l3.5.3a1.7 1.7 0 0 0 1.6-1.3l.8-3.2 1-3.5c.3-1 .6-2.4 1-3.4a44.4 44.4 0 0 0 1.3-9.8c0-1.8-.4-3.5-1.1-5a7.3 7.3 0 0 0-3.2-3.4v-.7Z" fill="#010101"></path><path d="M99.1 223.4a76.2 76.2 0 0 1-20.3 41.1 63 63 0 0 1-31.5 18c-4.3 1-8.7 1.1-13 .7a25.4 25.4 0 0 1-19.4-12c-2.4-4-4-8.4-4.5-12.9a7.1 7.1 0 0 1 4-7.3l9.2-6.1a32.3 32.3 0 0 1 9.7-4.6c.6 0 1.2.3 1.7.5a3.5 3.5 0 0 1 1.7 3c.6 3.2 2.5 6.2 5.1 8.3a10.4 10.4 0 0 0 8.5 1.8 19 19 0 0 0 10.2-6.9 41 41 0 0 0 7.6-17.8L80.7 172 57 177c-.9.2-1.7 0-2.5-.4a2 2 0 0 1-.7-1v-1.1l1.5-10 1.7-10.6a6 6 0 0 1 1.2-2.7 5 5 0 0 1 2.4-1.8c14.2-2.5 28.4-4.8 42.6-7l4.2-.9c1.5-.3 3-.6 4.7-.7.7-.1 1.4 0 2 .3a2 2 0 0 1 .9 2.3v1.3c-1.1 6.2-2.3 11.5-3.3 16.1l-2.7 12.6-2.3 10.7c-.7 3.4-1.4 7-2 10.8l-2.5 12.5-3.1 16.2Z" fill="url(#paint0_linear_867_15993)"></path><path d="M151.5 253.7c-2.9 3-6.3 5.6-10 7.7a36.3 36.3 0 0 1-18 4.6c-7.9 0-13.2-3.2-16-9.2a39.3 39.3 0 0 1-1.7-23 65.4 65.4 0 0 1 12.5-29.3 50 50 0 0 1 11.5-11c4.6-3.2 9.7-5.5 15.2-6.7 3.7-1 7.6-1.2 11.5-.5 3 .6 5.6 2 7.7 4.2l1.9-3.5c.5-1 1.4-1.8 2.4-2.3 1-.6 2.1-1 3.3-1.1l10.5-2.3h1.1c.4.1.8.3 1 .6.4.3.6.6.8 1v1.2a5617 5617 0 0 0-12.2 69.5 6.6 6.6 0 0 1-1.7 3 6 6 0 0 1-2.8 1.8c-1.9.5-3.8.9-5.7 1.1-1.9.1-3.7.4-5.5.8h-2.6c-.8 0-1.4-.9-1.9-2.3l-.9-4.2-.4-.1Zm-13.9-7a13.7 13.7 0 0 0 10.6-6.4 41.3 41.3 0 0 0 6-29.8c-.4-1.6-1.2-3-2.4-4.2a4.8 4.8 0 0 0-3.9-1.4c-3 .3-5.8 1.7-8 3.8-2.4 2.3-4.4 5-5.9 8a43.4 43.4 0 0 0-4.3 20.1c0 2.7.8 5.4 2.2 7.6a5 5 0 0 0 2.5 2.1c1 .5 2 .6 3.2.4v-.2Z" fill="url(#paint1_linear_867_15993)"></path><path d="M247.6 229.6a50.5 50.5 0 0 1-15.7 16.7 43 43 0 0 1-17.7 7 29 29 0 0 1-12.4-1.3 20.5 20.5 0 0 1-9.6-6.6 25.7 25.7 0 0 1-5-12c-.7-6-.3-12 1.2-17.8a52.2 52.2 0 0 1 6.7-16.2 52.6 52.6 0 0 1 23-21.2c4.1-2.1 8.5-3.5 13-4a24 24 0 0 1 16 3.1A20 20 0 0 1 256 192a4 4 0 0 1-2.7 4.7l-2 .9-1.8.8-7 3.4-3.4 1.6c-1.2.7-1.9.4-2.3 0-.5-.5-.8-1.2-.9-2a9 9 0 0 0-3-7 7.8 7.8 0 0 0-6.1-1.7 18 18 0 0 0-9.4 5.5c-3.5 3.9-6 8.7-7 13.8a28 28 0 0 0-.4 16 7.6 7.6 0 0 0 7 5.7c5.4 0 10.1-3.4 14.2-10.1.6-1.1 1.4-2.1 2.4-3 .4-.3.9-.5 1.4-.6.5 0 1.1 0 1.6.2 1.3.2 2.6.7 3.7 1.4l2.4 1.1 1.8.7 2 .7c.6.1 1 .3 1.4.7.4.4.6.8.7 1.3v1.9c-.2.5-.4 1.1-.8 1.6h-.2Z" fill="url(#paint2_linear_867_15993)"></path><path d="M310.5 244.9c-.5.5-1.2.8-1.9 1-.4 0-1-.1-1.3-.3a2 2 0 0 1-.8-1.1L289.2 220l-6.6 6.3-2.9 14.5a5.5 5.5 0 0 1-4.2 4c-.7 0-1.5.1-2.2.3a9 9 0 0 0-2.3.3l-8 1.1-2.2.3-2.3.3h-1.2c-.3 0-.7-.2-1-.5-.3-.3-.4-.7-.5-1.1v-1.3l17.8-100.5c.3-1 .9-2 1.7-2.8.7-.9 1.7-1.5 2.8-1.7a155.8 155.8 0 0 1 19.5-1.9c2-.2 3 .6 2.5 2.4l-10.5 51.4a3238 3238 0 0 1 28-28.8 6 6 0 0 1 3-1.4h1.2l1 .7 6.2 5.5c2 1.8 4 3.7 5.7 5.8.2.3.4.7.4 1v1.1c-.1.9-.5 1.7-1.2 2.3-8.9 8.3-17.8 16.8-26.7 25.4a1044.9 1044.9 0 0 1 21 25.4v1c-.4 1-1 1.8-1.8 2.4L310.8 245l-.3-.1Z" fill="url(#paint3_linear_867_15993)"></path><path d="m345.6 273-4.2.4c-1.2 0-2.4 0-3.5.3-1.1.2-2.3.3-3.5.3-1.2 0-2.6.3-4.2.5a2.2 2.2 0 0 1-2.2-.6l-.6-1.2v-1.2L345.6 170c.3-1.1 1-2 1.8-2.8.8-.8 1.8-1.3 3-1.6 1.6-.3 3.3-.5 5-.6h5.1a4.5 4.5 0 0 1 4.4 2.4l2 5.5c3.1-3 6.7-5.6 10.6-7.5 4-1.9 8.2-3 12.6-3.2h6.2c3.5.4 7 1.7 10 3.7a21 21 0 0 1 6 7.5 27 27 0 0 1 2.5 10.5 61 61 0 0 1-13.3 40.5 40 40 0 0 1-26.9 14.9c-7.7.9-13.7-.4-17.8-4l-7.5 33.6c-.2 1-.7 1.8-1.5 2.5a5 5 0 0 1-2.7 1.3l.5.3Zm26.6-52c3 0 5.7-1.1 8-3 2.4-2 4.4-4.5 6-7.3a39.1 39.1 0 0 0 4.2-19.2c-.2-2.6-1-5.2-2.4-7.4a6.2 6.2 0 0 0-5.7-3 12 12 0 0 0-7.9 2.9 25 25 0 0 0-5.6 7.3 37.6 37.6 0 0 0-4 19.3 17 17 0 0 0 2.1 7.4 5 5 0 0 0 2.1 2c1 .6 2 .8 3 .8l.2.2Z" fill="url(#paint4_linear_867_15993)"></path><path d="M465.4 158.5a17.3 17.3 0 0 1 13.9 6 29 29 0 0 1 6.3 14.6c.8 6.2.5 12.5-1 18.6-1.3 6.5-4 12.7-7.5 18.3a46.6 46.6 0 0 1-14.3 13.9 35.7 35.7 0 0 1-20.4 5.2 20.8 20.8 0 0 1-15.6-6 26.4 26.4 0 0 1-6.9-14.3c-.9-6.1-.5-12.4 1.1-18.5a56.4 56.4 0 0 1 8.4-18.4c4-5.7 9-10.5 15-14a38.1 38.1 0 0 1 20.8-5.4h.2Z" fill="url(#paint5_linear_867_15993)"></path><path d="M521 235c-4.7.3-9.4.2-14-.4-3.1-.4-6-1.7-8.4-3.8a13.1 13.1 0 0 1-3.3-8.7c-.1-5 .3-9.9 1.4-14.7l3-14.2 2.7-12.3h-6.1c-2 0-3 0-3-.4l.3-2.1 3.1-15 .6-2c.2-.6 1.1-.8 2.7-.8l7-.2 1.8-8.2 2-8.9c.1-1 .7-1.8 1.4-2.4.7-.7 1.6-1.1 2.5-1.2H525l4-.2a4.5 4.5 0 0 1 3.7.7c.4.3.6.7.8 1.1v1.3l-2.1 9.3c-.8 3-1.2 5.7-1.7 8.4h13c-.2 0-.2.2 0 .7.2.5.2 1.2 0 1.7-.5 2.4-1 4.8-1.3 7.2l-1.3 7.2c0 .6-.3 1.2-.7 1.7-.4.5-.5.7-.3.7l-13.6.5a1204.8 1204.8 0 0 0-5.3 25.8c-.8 3.3-.6 5.5.5 6.5a9 9 0 0 0 6.4 1.5 2.8 2.8 0 0 1 2.4 1c.4.3.6.7.8 1.1v1.5l-3.7 14.3a4 4 0 0 1-1 1.8 4 4 0 0 1-1.8 1l-3 .6.1-.1Z" fill="url(#paint6_linear_867_15993)"></path><path d="M588.5 227.6a32.2 32.2 0 0 1-22 7.7c-2-.1-4-.3-6-.7a20.5 20.5 0 0 1-16-12.2 41 41 0 0 1-1.8-23.3 56.1 56.1 0 0 1 12.4-27 40 40 0 0 1 11.5-9 35.3 35.3 0 0 1 26.6-2c3 1 5.7 3 7.8 5.5l1.7-3.2c.6-.9 1.5-1.6 2.5-1.9 1-.3 2.1-.5 3.2-.5l10.5-.2c.4 0 .8 0 1.2.2l1 .8.5 1.1v1.2l-12.2 67.4a5 5 0 0 1-1.7 2.6c-.7.7-1.7 1.2-2.7 1.3h-5.8l-5.4-.3c-.9 0-1.8-.3-2.6-.6-.9-.3-1.5-1.1-1.9-2.6-.4-1.4-.6-2.8-.9-4.3Zm-14-9.7a11 11 0 0 0 10.2-4.5c2.8-3.5 4.9-7.6 6-12l.7-3a31.6 31.6 0 0 0-.3-13.6 12 12 0 0 0-2.4-4.7 5.7 5.7 0 0 0-3.9-2 10.7 10.7 0 0 0-8 2.3 23 23 0 0 0-5.8 6.9 36.6 36.6 0 0 0-4.3 19.3c.1 2.7 1 5.4 2.3 7.7a7 7 0 0 0 5.6 3.5v.1Z" fill="url(#paint7_linear_867_15993)"></path><path d="M98.3 221.7A81.4 81.4 0 0 1 77.9 263a63.6 63.6 0 0 1-15.3 12 56 56 0 0 1-16.2 6c-4.2 1-8.6 1.1-13 .6a25.3 25.3 0 0 1-19.7-12.1 33 33 0 0 1-4.4-12.8 7.2 7.2 0 0 1 4-7.2c3.2-2 6.3-4 9.3-6.1a31 31 0 0 1 7.8-4.2c.6-.3 1.2-.4 1.8-.3.5 0 1.1.1 1.6.5a3.4 3.4 0 0 1 1.7 2.8 14 14 0 0 0 5.4 8.4 10.4 10.4 0 0 0 8.4 1.8 19 19 0 0 0 10.2-6.9 43 43 0 0 0 8-17.8 5274 5274 0 0 1 12.6-57.2 2386.3 2386.3 0 0 0-25 5l-1.2-.5a2 2 0 0 1-.8-1v-1.1l1.6-10c.5-3.4 1-7 1.7-10.7 0-1 .5-2 1.1-2.8.6-.9 1.4-1.6 2.4-2 14.1-2.5 28.3-4.9 42.5-7.2l4-.8c1.6-.3 3.2-.6 4.8-.7.7-.1 1.5 0 2.2.3.3.3.6.6.7 1 .2.5.2.9 0 1.3v1.3a1250 1250 0 0 1-3.2 16.2l-2.7 12.5L106 182l-2.1 10.7-2.4 12.6c-1 4.6-2 10-3.1 16.2v.2Z" fill="url(#paint8_linear_867_15993)"></path><path d="M150.5 252c-3 3-6.4 5.6-10.1 7.7a36.8 36.8 0 0 1-18.1 4.6c-8 0-13.3-3-16-9.1a39.2 39.2 0 0 1-1.8-23 64.9 64.9 0 0 1 12.5-29.4 50 50 0 0 1 11.5-11c4.6-3.2 9.7-5.5 15.2-6.7a27 27 0 0 1 11.5-.5c3 .6 5.6 2 7.7 4.2l1.9-3.4a5 5 0 0 1 2.5-2.5c1-.5 2.1-.9 3.2-1l10.6-2.3h1.1a2.1 2.1 0 0 1 1.6 1.6v1.2L171.6 252a6.5 6.5 0 0 1-1.7 3 6 6 0 0 1-2.8 1.8 49 49 0 0 1-5.8 1.1c-1.8.1-3.6.4-5.4.8h-2.6c-.9 0-1.5-.9-2-2.3l-.8-4.2v-.2Zm-14-6.9a13.7 13.7 0 0 0 10.5-6.4 41 41 0 0 0 6-13.1l.6-3.2c.5-2.4.7-4.8.7-7.3 0-2.1-.3-4.2-1-6.3a10 10 0 0 0-2.3-4.1 5 5 0 0 0-4-1.3c-3 .2-5.9 1.6-8 3.7a30.4 30.4 0 0 0-5.9 8.1 43.1 43.1 0 0 0-4.3 20.1 16 16 0 0 0 2.3 7.4 5.6 5.6 0 0 0 5.7 2.4h-.2Z" fill="url(#paint9_linear_867_15993)"></path><path d="M246.6 228a50.4 50.4 0 0 1-15.6 16.6c-5.3 3.6-11.4 6-17.8 6.9-4.2.6-8.5.3-12.6-1a20.7 20.7 0 0 1-9.7-6.6 25.7 25.7 0 0 1-5-12.2 52.2 52.2 0 0 1 7.8-34 61 61 0 0 1 23-21.1c4.2-2 8.6-3.4 13.2-4 5.5-.8 11.2.3 16 3.2a20 20 0 0 1 8.8 14.6 3.9 3.9 0 0 1-2.7 4.8l-2 .8-1.7.8-7 3.5a32 32 0 0 0-3.5 1.5c-1.2.7-2 .4-2.4 0a3 3 0 0 1-.8-1.9 9 9 0 0 0-3-7 8 8 0 0 0-6.1-1.6c-3.7.7-7 2.5-9.5 5.3-3.5 3.9-6 8.6-6.9 13.8a28 28 0 0 0-.5 16 7.8 7.8 0 0 0 7.4 5.9c5.4 0 10.1-3.4 14.2-10.2.6-1.1 1.4-2.1 2.3-3a3.2 3.2 0 0 1 3.2-.4c1.2.2 2.5.6 3.6 1.2l2.4 1.1 1.8.7 2 .7a2.4 2.4 0 0 1 2 2c.2.6.2 1.2 0 1.8 0 .6-.3 1.2-.7 1.7h-.2Z" fill="url(#paint10_linear_867_15993)"></path><path d="M309.4 243.3c-.6.5-1.3.8-2 1a1.9 1.9 0 0 1-2-1.4L288 218.5l-6.6 6.3-2.9 14.5a4 4 0 0 1-1.5 2.5c-.7.8-1.7 1.3-2.7 1.4l-2.2.4a9 9 0 0 0-2.3.3l-8 1.1-2.2.3c-.7 0-1.5.3-2.3.3h-1.2c-.3 0-.7-.3-1-.5-.3-.3-.5-.7-.5-1.1a125087.1 125087.1 0 0 0 17.8-101.7 6 6 0 0 1 1.7-2.9c.8-.8 1.7-1.4 2.8-1.7a197.7 197.7 0 0 1 19.5-1.9c2.1-.2 3 .6 2.5 2.4l-10.5 51.4 28-28.8a6 6 0 0 1 3-1.5c.4 0 .8 0 1.1.2.4.1.7.3 1 .6l6.3 5.5a53 53 0 0 1 5.6 6c.2.3.4.6.4 1v1c-.1 1-.5 1.7-1.2 2.3-9 8.4-18 16.8-26.7 25.3a1225 1225 0 0 1 21 25.3v1c-.4 1-1 1.9-1.8 2.5l-15.6 13.4-.1-.1Z" fill="url(#paint11_linear_867_15993)"></path><path d="m344.7 271.2-4.2.5c-1.2 0-2.3 0-3.5.3-1.1.2-2.3.3-3.4.3-1.3 0-2.6.2-4.2.5H328c-.4-.1-.7-.4-1-.7-.3-.3-.4-.7-.5-1.1v-1.2l18-101.5c.4-1 1-2 1.8-2.7.8-.8 1.8-1.4 3-1.6 1.6-.3 3.4-.5 5-.6h5.1a4.2 4.2 0 0 1 4.4 2.3l2.1 5.6a33.5 33.5 0 0 1 23-10.7h6.2c3.6.4 7 1.7 10 3.7a19 19 0 0 1 6.4 7.4 27 27 0 0 1 2.5 10.4 59.6 59.6 0 0 1-13 40.9 39.6 39.6 0 0 1-26.8 14.9c-7.7 1-13.7-.3-17.8-4l-7.4 33.6a5 5 0 0 1-1.5 2.5c-.8.7-1.7 1.2-2.7 1.3Zm26.4-52c3 0 5.8-1 8-3 2.5-2 4.5-4.4 6-7.2a40.6 40.6 0 0 0 4.2-19.2c-.2-2.7-1-5.2-2.4-7.4a6.3 6.3 0 0 0-5.7-3c-2.9 0-5.7 1-7.8 3a25 25 0 0 0-5.7 7.3 38 38 0 0 0-4 19.3c.2 2.6.9 5 2.1 7.4a5 5 0 0 0 2.1 2c1 .6 2 .8 3 .8h.2Z" fill="url(#paint12_linear_867_15993)"></path><path d="M464.2 156.9a17.3 17.3 0 0 1 13.8 6c3.4 4.2 5.6 9.2 6.2 14.6a54.6 54.6 0 0 1-8.5 36.9 46.5 46.5 0 0 1-14.2 13.8 35.6 35.6 0 0 1-20.4 5.2 20.7 20.7 0 0 1-15.4-5.9c-3.8-4-6.2-9-7-14.3-.9-6.2-.5-12.5 1.1-18.5a56 56 0 0 1 8.4-18.4 48 48 0 0 1 15-14.1 38 38 0 0 1 20.9-5.3Z" fill="url(#paint13_linear_867_15993)"></path><path d="M520.1 233.4c-4.6.3-9.3.1-13.9-.4-3.1-.4-6-1.7-8.4-3.9a13.3 13.3 0 0 1-3.3-8.6c-.2-5 .3-9.9 1.4-14.7l3-14.2 2.7-12.3h-6.1c-2 0-3 0-3-.5 0-.7.1-1.4.3-2l3.1-15 .6-2c.2-.5 1-.9 2.7-.9l7-.1 1.8-8.2 1.9-8.9c.2-1 .7-1.8 1.5-2.5.7-.6 1.6-1 2.5-1.1h10.3l4-.3a5 5 0 0 1 2 0l1.7.8c.4.3.6.7.8 1.1v1.3l-2.1 9.3c-.8 3-1.3 5.6-1.7 8.3h13c-.2 0-.2.3 0 .7.2.6.2 1.2 0 1.8-.5 2.4-1 4.7-1.3 7.2-.3 2.4-.8 4.8-1.3 7.2 0 .6-.3 1.2-.7 1.7-.4.5-.5.7-.3.7l-13.7.5a1383.9 1383.9 0 0 0-5 25.9c-.9 3.2-.7 5.4.4 6.5a9 9 0 0 0 6.4 1.5c.5 0 1 0 1.3.2.5.1.8.4 1.1.7.4.3.7.7.8 1.2.2.4.2 1 0 1.4l-3.7 14.4a3.8 3.8 0 0 1-2.7 2.8c-1 .3-2 .4-3.1.5v-.1Z" fill="url(#paint14_linear_867_15993)"></path><path d="M587.2 225.7a33.4 33.4 0 0 1-28 7 20.5 20.5 0 0 1-16-12.2 41.1 41.1 0 0 1-1.6-23.3 56.1 56.1 0 0 1 12.3-27 35.3 35.3 0 0 1 38.2-11.2c3 1.1 5.7 3 7.8 5.5l1.7-3.1c.6-1 1.5-1.6 2.5-2 1-.3 2.1-.4 3.2-.4l10.4-.3 1.2.3 1 .7a2.6 2.6 0 0 1 .5 2.4l-12.2 67.4a5 5 0 0 1-1.7 2.6c-.7.7-1.7 1.2-2.7 1.3H598l-5.4-.3a14 14 0 0 1-2.6-.6c-.9-.3-1.5-1.1-2-2.6l-.8-4.3v.1Zm-13.8-9.6a11 11 0 0 0 10.1-4.5 33 33 0 0 0 6.1-12l.6-3a31.6 31.6 0 0 0-.3-13.7 12 12 0 0 0-2.4-4.6 5.8 5.8 0 0 0-3.8-2 10.8 10.8 0 0 0-8 2.3 22.7 22.7 0 0 0-5.9 6.8 35.5 35.5 0 0 0-4.3 19.3c.2 2.8 1 5.5 2.4 7.8a6.9 6.9 0 0 0 5.6 3.5h-.1Z" fill="url(#paint15_linear_867_15993)"></path><path d="M489.3 277a7.9 7.9 0 0 1-2.6 4.6 6 6 0 0 1-2.4 1.2 6 6 0 0 1-2.7 0c-.6 0-1.2-.2-1.7-.5s-.9-.8-1.2-1.3c-.5-1-.7-2.3-.4-3.5.2-1.5 1-3 2-4.2.7-.6 1.4-1.1 2.2-1.5.8-.3 1.7-.5 2.6-.5a4 4 0 0 1 3.8 1.4c.3.6.6 1.3.7 2 0 .8 0 1.6-.3 2.3Zm29.2-3.2a17 17 0 0 1-6.3 6 14 14 0 0 1-12.3 1 10 10 0 0 1-4-3.3 12.3 12.3 0 0 1-2-5.2 20 20 0 0 1 3.1-13.5c2.3-3.3 5.6-5.8 9.4-7.3a16 16 0 0 1 5.3-1c2.4 0 4.6.8 6.5 2.1a9 9 0 0 1 2.4 2.9 8.8 8.8 0 0 1 1.1 4.1c0 .2 0 .4-.2.6a1.4 1.4 0 0 1-1 .6l-.7.3-.8.2-2.8 1-1.5.6h-1c-.1-.3-.3-.5-.3-.8 0-.6 0-1.2-.2-1.7a4 4 0 0 0-2-2.1l-1.4-.3a6 6 0 0 0-3.9 1.7 10.2 10.2 0 0 0-2.8 5 11 11 0 0 0-.2 6.6 3.7 3.7 0 0 0 3 2.8c1.2.1 2.4-.2 3.4-.8a6 6 0 0 0 2.4-2.7 4 4 0 0 1 1-1 1.2 1.2 0 0 1 1.2 0c.5.1 1 .4 1.5.7l1 .6.7.4.8.4.6.3.3.6v.7c0 .2-.2.4-.4.6v-.1Zm22.3-22.8c1 0 2.1.2 3 .6a6 6 0 0 1 2.6 1.9 12 12 0 0 1 2.6 5.9c.3 2.5.2 5-.4 7.5a19.3 19.3 0 0 1-8.9 12.9 14.2 14.2 0 0 1-8.2 2 8.9 8.9 0 0 1-6.3-2.6 11.2 11.2 0 0 1-2.8-6 19 19 0 0 1 .5-7.4 22 22 0 0 1 3.5-7.3 20 20 0 0 1 6-5.6c2.6-1.4 5.5-2 8.5-2h-.1Zm-7.2 23.2c.5 0 1 0 1.4-.2.5-.1 1-.4 1.3-.7.8-.8 1.5-1.7 2-2.7a17.7 17.7 0 0 0 1.6-7.5c0-1-.2-2-.6-2.9a2 2 0 0 0-.6-.8c-.3-.3-.6-.4-1-.4-.5 0-1 0-1.4.2-.5.1-.9.4-1.2.7-.9.8-1.6 1.7-2.1 2.8a14.8 14.8 0 0 0-1.7 7.4c-.1 1 0 2 .5 2.9.1.3.4.6.7.9.3.2.7.3 1 .3h.1Zm64.4 6.3c-.1.3-.4.6-.7.8-.2.3-.6.4-1 .4-1.1 0-2.3-.1-3.4-.3l-3.5-.4c-.3 0-.7-.2-.9-.4l-.2-.5v-.5l1.5-6.3a114 114 0 0 0 2-9.7v-2.9c-.1-.8-.5-1.4-1.1-2-.7-.5-1.5-.7-2.3-.6a4 4 0 0 0-2.3.8c-.7.6-1.4 1.3-1.9 2.1a18.2 18.2 0 0 0-2.5 6l-1.5 6.5-1.5 6.4a1.5 1.5 0 0 1-1.6 1.3h-7.5a.8.8 0 0 1-.4-.4l-.2-.5v-.5a415.3 415.3 0 0 0 3.2-16.4c.1-.9 0-1.9-.1-2.8-.2-.8-.6-1.5-1.1-2-.7-.5-1.5-.7-2.4-.6a4 4 0 0 0-2.2.8 10 10 0 0 0-2 2.1 16.5 16.5 0 0 0-2.4 6l-2.6 12.6c0 .4-.3.8-.6 1-.3.3-.6.4-1 .4h-7.2a1 1 0 0 1-.4-.2 1 1 0 0 1-.2-.5v-.5l4.8-26.8c.1-.4.4-.8.7-1 .3-.4.7-.6 1.1-.6h4.9a1.3 1.3 0 0 1 1.4 1l.5 2.3c1.1-1.3 2.5-2.4 4-3.2 1.7-.8 3.5-1.2 5.4-1.2 2.1-.2 4.2.3 6 1.4 1.5 1 2.6 2.6 3.2 4.3a12 12 0 0 1 10.4-5.8c1.9 0 3.7.3 5.4 1.1a7 7 0 0 1 3.2 3.3c.7 1.6 1.1 3.3 1.1 5a29.5 29.5 0 0 1-1.4 10l-1 3.4c-.3 1.3-.6 2.5-1 3.5l-.8 3.3.1.8Z" fill="white"></path><path d="M474 151c-.6-.5-1.3-.8-2-1a5 5 0 0 0-2.3 0h-.4c-12.7 5.4-16.2 19-17.2 26.7a13 13 0 0 0-9.4.4 23 23 0 0 0-13.3 24c.5 2.8 1.5 5.5 3 8a17.6 17.6 0 0 0 12.6 7.7h2.5a24.8 24.8 0 0 0 22.9-18.7 19 19 0 0 0-3.3-16.9 11.5 11.5 0 0 0-8.5-4.2c0-3 .6-6 2-8.7 2-4.7 5.8-8.5 10.4-10.7 2-1 3.5-1.8 3.9-3.7.2-.5.2-1.1 0-1.7-.2-.5-.4-1-.9-1.5v.3Z" fill="url(#paint16_linear_867_15993)"></path><path d="M468.6 198.2a22 22 0 0 1-23.1 17c-10.2-1.3-16.1-11-13.4-21.8 2.7-10.8 13.8-18.9 22.2-13.2 10.4-3.7 17.1 7.2 14.4 18Z" fill="#0B1016"></path><path d="M453.3 183.4s-1.2-24 16.5-31.3c0 0 3.5-.8 3 1.8-.5 2.7-8.9 2.6-14.3 14a18.8 18.8 0 0 0-.7 16.6l-4.5-1v-.1Z" fill="#0B1016"></path><path d="M448.6 189.1a5.5 5.5 0 0 1-5.8 4.2 4.4 4.4 0 0 1-3.1-2 4 4 0 0 1-.6-1.7c0-.6 0-1.2.2-1.8.2-1.3 1-2.4 2-3.2a6.4 6.4 0 0 1 3.8-1c.6 0 1.2.3 1.7.6a4.2 4.2 0 0 1 1.8 4.9Z" fill="url(#paint17_linear_867_15993)"></path><path d="M447.4 188.7c-.1 1-.7 2-1.5 2.6-.8.7-1.8 1-2.8.9-.5 0-1-.2-1.3-.5a3.2 3.2 0 0 1-1.4-2.3l.1-1.4c.2-1 .8-2 1.6-2.6.8-.6 1.8-1 2.9-.9.4 0 .9.3 1.3.5a3.2 3.2 0 0 1 1.4 2.3c0 .5 0 1-.3 1.4Z" fill="url(#paint18_linear_867_15993)"></path><defs><linearGradient id="paint0_linear_867_15993" x1="61.1145" y1="112.399" x2="53.3352" y2="293.582" gradientUnits="userSpaceOnUse"><stop stop-color="#FAB417"></stop><stop offset="0.25" stop-color="#F8941D"></stop><stop offset="0.29" stop-color="#E68A1D"></stop><stop offset="0.36" stop-color="#B9711E"></stop><stop offset="0.46" stop-color="#744B20"></stop><stop offset="0.51" stop-color="#FDE4AF"></stop><stop offset="1" stop-color="#F7C77C"></stop></linearGradient><linearGradient id="paint1_linear_867_15993" x1="146.77" y1="121.269" x2="139.611" y2="303.489" gradientUnits="userSpaceOnUse"><stop stop-color="#FAB417"></stop><stop offset="0.25" stop-color="#F8941D"></stop><stop offset="0.29" stop-color="#E68A1D"></stop><stop offset="0.36" stop-color="#B9711E"></stop><stop offset="0.46" stop-color="#744B20"></stop><stop offset="0.51" stop-color="#FDE4AF"></stop><stop offset="1" stop-color="#F7C77C"></stop></linearGradient><linearGradient id="paint2_linear_867_15993" x1="219.671" y1="124.518" x2="212.378" y2="307.281" gradientUnits="userSpaceOnUse"><stop stop-color="#FAB417"></stop><stop offset="0.25" stop-color="#F8941D"></stop><stop offset="0.29" stop-color="#E68A1D"></stop><stop offset="0.36" stop-color="#B9711E"></stop><stop offset="0.46" stop-color="#744B20"></stop><stop offset="0.51" stop-color="#FDE4AF"></stop><stop offset="1" stop-color="#F7C77C"></stop></linearGradient><linearGradient id="paint3_linear_867_15993" x1="297.77" y1="122.841" x2="290.174" y2="305.165" gradientUnits="userSpaceOnUse"><stop stop-color="#FAB417"></stop><stop offset="0.25" stop-color="#F8941D"></stop><stop offset="0.29" stop-color="#E68A1D"></stop><stop offset="0.36" stop-color="#B9711E"></stop><stop offset="0.46" stop-color="#744B20"></stop><stop offset="0.51" stop-color="#FDE4AF"></stop><stop offset="1" stop-color="#F7C77C"></stop></linearGradient><linearGradient id="paint4_linear_867_15993" x1="370.635" y1="128.965" x2="363.436" y2="310.866" gradientUnits="userSpaceOnUse"><stop stop-color="#FAB417"></stop><stop offset="0.25" stop-color="#F8941D"></stop><stop offset="0.29" stop-color="#E68A1D"></stop><stop offset="0.36" stop-color="#B9711E"></stop><stop offset="0.46" stop-color="#744B20"></stop><stop offset="0.51" stop-color="#FDE4AF"></stop><stop offset="1" stop-color="#F7C77C"></stop></linearGradient><linearGradient id="paint5_linear_867_15993" x1="453.51" y1="128.185" x2="446.434" y2="310.585" gradientUnits="userSpaceOnUse"><stop stop-color="#FAB417"></stop><stop offset="0.25" stop-color="#F8941D"></stop><stop offset="0.29" stop-color="#E68A1D"></stop><stop offset="0.36" stop-color="#B9711E"></stop><stop offset="0.46" stop-color="#744B20"></stop><stop offset="0.51" stop-color="#FDE4AF"></stop><stop offset="1" stop-color="#F7C77C"></stop></linearGradient><linearGradient id="paint6_linear_867_15993" x1="522.01" y1="129.692" x2="514.644" y2="312.328" gradientUnits="userSpaceOnUse"><stop stop-color="#FAB417"></stop><stop offset="0.25" stop-color="#F8941D"></stop><stop offset="0.29" stop-color="#E68A1D"></stop><stop offset="0.36" stop-color="#B9711E"></stop><stop offset="0.46" stop-color="#744B20"></stop><stop offset="0.51" stop-color="#FDE4AF"></stop><stop offset="1" stop-color="#F7C77C"></stop></linearGradient><linearGradient id="paint7_linear_867_15993" x1="588.387" y1="144.126" x2="581.834" y2="311.898" gradientUnits="userSpaceOnUse"><stop stop-color="#FAB417"></stop><stop offset="0.25" stop-color="#F8941D"></stop><stop offset="0.29" stop-color="#E68A1D"></stop><stop offset="0.36" stop-color="#B9711E"></stop><stop offset="0.46" stop-color="#744B20"></stop><stop offset="0.51" stop-color="#FDE4AF"></stop><stop offset="1" stop-color="#F7C77C"></stop></linearGradient><linearGradient id="paint8_linear_867_15993" x1="61.3628" y1="290.4" x2="49.6474" y2="128.997" gradientUnits="userSpaceOnUse"><stop stop-color="#FAB417"></stop><stop offset="0.25" stop-color="#F8941D"></stop><stop offset="0.33" stop-color="#E68520"></stop><stop offset="0.47" stop-color="#C06528"></stop><stop offset="0.48" stop-color="#D7955C"></stop><stop offset="0.51" stop-color="#FDE4AF"></stop><stop offset="0.78" stop-color="#F9D08A"></stop><stop offset="1" stop-color="#F0EFEF"></stop></linearGradient><linearGradient id="paint9_linear_867_15993" x1="146.352" y1="285.78" x2="137.406" y2="151.061" gradientUnits="userSpaceOnUse"><stop stop-color="#FAB417"></stop><stop offset="0.25" stop-color="#F8941D"></stop><stop offset="0.33" stop-color="#E68520"></stop><stop offset="0.47" stop-color="#C06528"></stop><stop offset="0.48" stop-color="#D7955C"></stop><stop offset="0.51" stop-color="#FDE4AF"></stop><stop offset="0.78" stop-color="#F9D08A"></stop><stop offset="1" stop-color="#F0EFEF"></stop></linearGradient><linearGradient id="paint10_linear_867_15993" x1="219.145" y1="280.3" x2="210.035" y2="146.106" gradientUnits="userSpaceOnUse"><stop stop-color="#FAB417"></stop><stop offset="0.25" stop-color="#F8941D"></stop><stop offset="0.33" stop-color="#E68520"></stop><stop offset="0.47" stop-color="#C06528"></stop><stop offset="0.48" stop-color="#D7955C"></stop><stop offset="0.51" stop-color="#FDE4AF"></stop><stop offset="0.78" stop-color="#F9D08A"></stop><stop offset="1" stop-color="#F0EFEF"></stop></linearGradient><linearGradient id="paint11_linear_867_15993" x1="297.345" y1="270.707" x2="288.241" y2="136.894" gradientUnits="userSpaceOnUse"><stop stop-color="#FAB417"></stop><stop offset="0.25" stop-color="#F8941D"></stop><stop offset="0.33" stop-color="#E68520"></stop><stop offset="0.47" stop-color="#C06528"></stop><stop offset="0.48" stop-color="#D7955C"></stop><stop offset="0.51" stop-color="#FDE4AF"></stop><stop offset="0.78" stop-color="#F9D08A"></stop><stop offset="1" stop-color="#F0EFEF"></stop></linearGradient><linearGradient id="paint12_linear_867_15993" x1="368.96" y1="267.795" x2="358.898" y2="134.391" gradientUnits="userSpaceOnUse"><stop stop-color="#FAB417"></stop><stop offset="0.25" stop-color="#F8941D"></stop><stop offset="0.33" stop-color="#E68520"></stop><stop offset="0.47" stop-color="#C06528"></stop><stop offset="0.48" stop-color="#D7955C"></stop><stop offset="0.51" stop-color="#FDE4AF"></stop><stop offset="0.78" stop-color="#F9D08A"></stop><stop offset="1" stop-color="#F0EFEF"></stop></linearGradient><linearGradient id="paint13_linear_867_15993" x1="454.262" y1="258.44" x2="444.542" y2="124.448" gradientUnits="userSpaceOnUse"><stop stop-color="#FAB417"></stop><stop offset="0.25" stop-color="#F8941D"></stop><stop offset="0.33" stop-color="#E68520"></stop><stop offset="0.47" stop-color="#C06528"></stop><stop offset="0.48" stop-color="#D7955C"></stop><stop offset="0.51" stop-color="#FDE4AF"></stop><stop offset="0.78" stop-color="#F9D08A"></stop><stop offset="1" stop-color="#F0EFEF"></stop></linearGradient><linearGradient id="paint14_linear_867_15993" x1="522.184" y1="252.513" x2="512.997" y2="118.946" gradientUnits="userSpaceOnUse"><stop stop-color="#FAB417"></stop><stop offset="0.25" stop-color="#F8941D"></stop><stop offset="0.33" stop-color="#E68520"></stop><stop offset="0.47" stop-color="#C06528"></stop><stop offset="0.48" stop-color="#D7955C"></stop><stop offset="0.51" stop-color="#FDE4AF"></stop><stop offset="0.78" stop-color="#F9D08A"></stop><stop offset="1" stop-color="#F0EFEF"></stop></linearGradient><linearGradient id="paint15_linear_867_15993" x1="589.584" y1="250.367" x2="580.844" y2="126.785" gradientUnits="userSpaceOnUse"><stop stop-color="#FAB417"></stop><stop offset="0.25" stop-color="#F8941D"></stop><stop offset="0.33" stop-color="#E68520"></stop><stop offset="0.47" stop-color="#C06528"></stop><stop offset="0.48" stop-color="#D7955C"></stop><stop offset="0.51" stop-color="#FDE4AF"></stop><stop offset="0.78" stop-color="#F9D08A"></stop><stop offset="1" stop-color="#F0EFEF"></stop></linearGradient><linearGradient id="paint16_linear_867_15993" x1="447.709" y1="150.707" x2="447.709" y2="231.697" gradientUnits="userSpaceOnUse"><stop stop-color="#FAB417"></stop><stop offset="0.25" stop-color="#F8941D"></stop><stop offset="0.33" stop-color="#E68520"></stop><stop offset="0.47" stop-color="#C06528"></stop><stop offset="0.48" stop-color="#D7955C"></stop><stop offset="0.51" stop-color="#FDE4AF"></stop><stop offset="0.78" stop-color="#F9D08A"></stop><stop offset="1" stop-color="#F0EFEF"></stop></linearGradient><linearGradient id="paint17_linear_867_15993" x1="447.73" y1="200.305" x2="442.205" y2="178.881" gradientUnits="userSpaceOnUse"><stop stop-color="#FAB417"></stop><stop offset="0.25" stop-color="#F8941D"></stop><stop offset="0.33" stop-color="#E68520"></stop><stop offset="0.47" stop-color="#C06528"></stop><stop offset="0.48" stop-color="#D7955C"></stop><stop offset="0.51" stop-color="#FDE4AF"></stop><stop offset="0.78" stop-color="#F9D08A"></stop><stop offset="1" stop-color="#F0EFEF"></stop></linearGradient><linearGradient id="paint18_linear_867_15993" x1="442.733" y1="176.224" x2="442.733" y2="189.626" gradientUnits="userSpaceOnUse"><stop stop-color="#FAB417"></stop><stop offset="0.25" stop-color="#F8941D"></stop><stop offset="0.33" stop-color="#E68520"></stop><stop offset="0.47" stop-color="#C06528"></stop><stop offset="0.48" stop-color="#D7955C"></stop><stop offset="0.51" stop-color="#FDE4AF"></stop><stop offset="0.78" stop-color="#F9D08A"></stop><stop offset="1" stop-color="#F0EFEF"></stop></linearGradient></defs></svg> 